STARTFONT 2.1
COMMENT ter-u14n
FONT -xos4-Terpinus-Medium-R-Normal--14-140-72-72-C-80-ISO10646-1
SIZE 14 72 72
FONTBOUNDINGBOX 8 14 0 -2
STARTPROPERTIES 19
FOUNDRY "xos4"
FAMILY_NAME "Terpinus"
WEIGHT_NAME "Medium"
SLANT "R"
SETWIDTH_NAME "Normal"
ADD_STYLE_NAME ""
PIXEL_SIZE 14
POINT_SIZE 140
RESOLUTION_X 72
RESOLUTION_Y 72
SPACING "C"
AVERAGE_WIDTH 80
CHARSET_REGISTRY "ISO10646"
CHARSET_ENCODING "1"
MIN_SPACE 0
FONT_ASCENT 12
FONT_DESCENT 2
DEFAULT_CHAR 65533
COPYRIGHT "Copyright (C) 2006 Dimitar Toshkov Zhekov"
ENDPROPERTIES
CHARS 777
STARTCHAR char0
ENCODING 0
SWIDTH 571 0
DWIDTH 8 0
BBX 8 14 0 -2
BITMAP
00
00
66
42
00
00
42
42
00
00
42
66
00
00
ENDCHAR
STARTCHAR space
ENCODING 32
SWIDTH 571 0
DWIDTH 8 0
BBX 8 14 0 -2
BITMAP
00
00
00
00
00
00
00
00
00
00
00
00
00
00
ENDCHAR
STARTCHAR exclam
ENCODING 33
SWIDTH 571 0
DWIDTH 8 0
BBX 8 14 0 -2
BITMAP
00
00
10
10
10
10
10
10
10
00
10
10
00
00
ENDCHAR
STARTCHAR quotedbl
ENCODING 34
SWIDTH 571 0
DWIDTH 8 0
BBX 8 14 0 -2
BITMAP
00
24
24
24
00
00
00
00
00
00
00
00
00
00
ENDCHAR
STARTCHAR numbersign
ENCODING 35
SWIDTH 571 0
DWIDTH 8 0
BBX 8 14 0 -2
BITMAP
00
00
24
24
24
7E
24
24
7E
24
24
24
00
00
ENDCHAR
STARTCHAR dollar
ENCODING 36
SWIDTH 571 0
DWIDTH 8 0
BBX 8 14 0 -2
BITMAP
00
10
10
7C
92
90
90
7C
12
12
92
7C
10
10
ENDCHAR
STARTCHAR percent
ENCODING 37
SWIDTH 571 0
DWIDTH 8 0
BBX 8 14 0 -2
BITMAP
00
00
64
94
68
08
10
10
20
2C
52
4C
00
00
ENDCHAR
STARTCHAR ampersand
ENCODING 38
SWIDTH 571 0
DWIDTH 8 0
BBX 8 14 0 -2
BITMAP
00
00
18
24
24
18
30
4A
44
44
44
3A
00
00
ENDCHAR
STARTCHAR quotesingle
ENCODING 39
SWIDTH 571 0
DWIDTH 8 0
BBX 8 14 0 -2
BITMAP
00
10
10
10
00
00
00
00
00
00
00
00
00
00
ENDCHAR
STARTCHAR parenleft
ENCODING 40
SWIDTH 571 0
DWIDTH 8 0
BBX 8 14 0 -2
BITMAP
00
00
08
10
20
20
20
20
20
20
10
08
00
00
ENDCHAR
STARTCHAR parenright
ENCODING 41
SWIDTH 571 0
DWIDTH 8 0
BBX 8 14 0 -2
BITMAP
00
00
20
10
08
08
08
08
08
08
10
20
00
00
ENDCHAR
STARTCHAR asterisk
ENCODING 42
SWIDTH 571 0
DWIDTH 8 0
BBX 8 14 0 -2
BITMAP
00
00
00
00
00
24
18
7E
18
24
00
00
00
00
ENDCHAR
STARTCHAR plus
ENCODING 43
SWIDTH 571 0
DWIDTH 8 0
BBX 8 14 0 -2
BITMAP
00
00
00
00
00
10
10
7C
10
10
00
00
00
00
ENDCHAR
STARTCHAR comma
ENCODING 44
SWIDTH 571 0
DWIDTH 8 0
BBX 8 14 0 -2
BITMAP
00
00
00
00
00
00
00
00
00
00
10
10
20
00
ENDCHAR
STARTCHAR hyphen
ENCODING 45
SWIDTH 571 0
DWIDTH 8 0
BBX 8 14 0 -2
BITMAP
00
00
00
00
00
00
00
7E
00
00
00
00
00
00
ENDCHAR
STARTCHAR period
ENCODING 46
SWIDTH 571 0
DWIDTH 8 0
BBX 8 14 0 -2
BITMAP
00
00
00
00
00
00
00
00
00
00
10
10
00
00
ENDCHAR
STARTCHAR slash
ENCODING 47
SWIDTH 571 0
DWIDTH 8 0
BBX 8 14 0 -2
BITMAP
00
00
04
04
08
08
10
10
20
20
40
40
00
00
ENDCHAR
STARTCHAR zero
ENCODING 48
SWIDTH 571 0
DWIDTH 8 0
BBX 8 14 0 -2
BITMAP
00
00
3C
42
42
46
4A
52
62
42
42
3C
00
00
ENDCHAR
STARTCHAR one
ENCODING 49
SWIDTH 571 0
DWIDTH 8 0
BBX 8 14 0 -2
BITMAP
00
00
08
18
28
08
08
08
08
08
08
3E
00
00
ENDCHAR
STARTCHAR two
ENCODING 50
SWIDTH 571 0
DWIDTH 8 0
BBX 8 14 0 -2
BITMAP
00
00
3C
42
42
02
04
08
10
20
40
7E
00
00
ENDCHAR
STARTCHAR three
ENCODING 51
SWIDTH 571 0
DWIDTH 8 0
BBX 8 14 0 -2
BITMAP
00
00
3C
42
42
02
1C
02
02
42
42
3C
00
00
ENDCHAR
STARTCHAR four
ENCODING 52
SWIDTH 571 0
DWIDTH 8 0
BBX 8 14 0 -2
BITMAP
00
00
02
06
0A
12
22
42
7E
02
02
02
00
00
ENDCHAR
STARTCHAR five
ENCODING 53
SWIDTH 571 0
DWIDTH 8 0
BBX 8 14 0 -2
BITMAP
00
00
7E
40
40
40
7C
02
02
02
42
3C
00
00
ENDCHAR
STARTCHAR six
ENCODING 54
SWIDTH 571 0
DWIDTH 8 0
BBX 8 14 0 -2
BITMAP
00
00
1C
20
40
40
7C
42
42
42
42
3C
00
00
ENDCHAR
STARTCHAR seven
ENCODING 55
SWIDTH 571 0
DWIDTH 8 0
BBX 8 14 0 -2
BITMAP
00
00
7E
02
02
04
04
08
08
10
10
10
00
00
ENDCHAR
STARTCHAR eight
ENCODING 56
SWIDTH 571 0
DWIDTH 8 0
BBX 8 14 0 -2
BITMAP
00
00
3C
42
42
42
3C
42
42
42
42
3C
00
00
ENDCHAR
STARTCHAR nine
ENCODING 57
SWIDTH 571 0
DWIDTH 8 0
BBX 8 14 0 -2
BITMAP
00
00
3C
42
42
42
42
3E
02
02
04
38
00
00
ENDCHAR
STARTCHAR colon
ENCODING 58
SWIDTH 571 0
DWIDTH 8 0
BBX 8 14 0 -2
BITMAP
00
00
00
00
00
10
10
00
00
00
10
10
00
00
ENDCHAR
STARTCHAR semicolon
ENCODING 59
SWIDTH 571 0
DWIDTH 8 0
BBX 8 14 0 -2
BITMAP
00
00
00
00
00
10
10
00
00
00
10
10
20
00
ENDCHAR
STARTCHAR less
ENCODING 60
SWIDTH 571 0
DWIDTH 8 0
BBX 8 14 0 -2
BITMAP
00
00
00
04
08
10
20
40
20
10
08
04
00
00
ENDCHAR
STARTCHAR equal
ENCODING 61
SWIDTH 571 0
DWIDTH 8 0
BBX 8 14 0 -2
BITMAP
00
00
00
00
00
7E
00
00
7E
00
00
00
00
00
ENDCHAR
STARTCHAR greater
ENCODING 62
SWIDTH 571 0
DWIDTH 8 0
BBX 8 14 0 -2
BITMAP
00
00
00
40
20
10
08
04
08
10
20
40
00
00
ENDCHAR
STARTCHAR question
ENCODING 63
SWIDTH 571 0
DWIDTH 8 0
BBX 8 14 0 -2
BITMAP
00
00
3C
42
42
42
04
08
08
00
08
08
00
00
ENDCHAR
STARTCHAR at
ENCODING 64
SWIDTH 571 0
DWIDTH 8 0
BBX 8 14 0 -2
BITMAP
00
00
7C
82
9E
A2
A2
A2
A6
9A
80
7E
00
00
ENDCHAR
STARTCHAR A
ENCODING 65
SWIDTH 571 0
DWIDTH 8 0
BBX 8 14 0 -2
BITMAP
00
00
3C
42
42
42
42
7E
42
42
42
42
00
00
ENDCHAR
STARTCHAR B
ENCODING 66
SWIDTH 571 0
DWIDTH 8 0
BBX 8 14 0 -2
BITMAP
00
00
7C
42
42
42
7C
42
42
42
42
7C
00
00
ENDCHAR
STARTCHAR C
ENCODING 67
SWIDTH 571 0
DWIDTH 8 0
BBX 8 14 0 -2
BITMAP
00
00
3C
42
42
40
40
40
40
42
42
3C
00
00
ENDCHAR
STARTCHAR D
ENCODING 68
SWIDTH 571 0
DWIDTH 8 0
BBX 8 14 0 -2
BITMAP
00
00
78
44
42
42
42
42
42
42
44
78
00
00
ENDCHAR
STARTCHAR E
ENCODING 69
SWIDTH 571 0
DWIDTH 8 0
BBX 8 14 0 -2
BITMAP
00
00
7E
40
40
40
78
40
40
40
40
7E
00
00
ENDCHAR
STARTCHAR F
ENCODING 70
SWIDTH 571 0
DWIDTH 8 0
BBX 8 14 0 -2
BITMAP
00
00
7E
40
40
40
78
40
40
40
40
40
00
00
ENDCHAR
STARTCHAR G
ENCODING 71
SWIDTH 571 0
DWIDTH 8 0
BBX 8 14 0 -2
BITMAP
00
00
3C
42
42
40
40
4E
42
42
42
3C
00
00
ENDCHAR
STARTCHAR H
ENCODING 72
SWIDTH 571 0
DWIDTH 8 0
BBX 8 14 0 -2
BITMAP
00
00
42
42
42
42
7E
42
42
42
42
42
00
00
ENDCHAR
STARTCHAR I
ENCODING 73
SWIDTH 571 0
DWIDTH 8 0
BBX 8 14 0 -2
BITMAP
00
00
38
10
10
10
10
10
10
10
10
38
00
00
ENDCHAR
STARTCHAR J
ENCODING 74
SWIDTH 571 0
DWIDTH 8 0
BBX 8 14 0 -2
BITMAP
00
00
0E
04
04
04
04
04
04
44
44
38
00
00
ENDCHAR
STARTCHAR K
ENCODING 75
SWIDTH 571 0
DWIDTH 8 0
BBX 8 14 0 -2
BITMAP
00
00
42
44
48
50
60
60
50
48
44
42
00
00
ENDCHAR
STARTCHAR L
ENCODING 76
SWIDTH 571 0
DWIDTH 8 0
BBX 8 14 0 -2
BITMAP
00
00
40
40
40
40
40
40
40
40
40
7E
00
00
ENDCHAR
STARTCHAR M
ENCODING 77
SWIDTH 571 0
DWIDTH 8 0
BBX 8 14 0 -2
BITMAP
00
00
82
C6
AA
92
82
82
82
82
82
82
00
00
ENDCHAR
STARTCHAR N
ENCODING 78
SWIDTH 571 0
DWIDTH 8 0
BBX 8 14 0 -2
BITMAP
00
00
42
42
42
62
52
4A
46
42
42
42
00
00
ENDCHAR
STARTCHAR O
ENCODING 79
SWIDTH 571 0
DWIDTH 8 0
BBX 8 14 0 -2
BITMAP
00
00
3C
42
42
42
42
42
42
42
42
3C
00
00
ENDCHAR
STARTCHAR P
ENCODING 80
SWIDTH 571 0
DWIDTH 8 0
BBX 8 14 0 -2
BITMAP
00
00
7C
42
42
42
42
7C
40
40
40
40
00
00
ENDCHAR
STARTCHAR Q
ENCODING 81
SWIDTH 571 0
DWIDTH 8 0
BBX 8 14 0 -2
BITMAP
00
00
3C
42
42
42
42
42
42
42
4A
3C
02
00
ENDCHAR
STARTCHAR R
ENCODING 82
SWIDTH 571 0
DWIDTH 8 0
BBX 8 14 0 -2
BITMAP
00
00
7C
42
42
42
42
7C
50
48
44
42
00
00
ENDCHAR
STARTCHAR S
ENCODING 83
SWIDTH 571 0
DWIDTH 8 0
BBX 8 14 0 -2
BITMAP
00
00
3C
42
40
40
3C
02
02
42
42
3C
00
00
ENDCHAR
STARTCHAR T
ENCODING 84
SWIDTH 571 0
DWIDTH 8 0
BBX 8 14 0 -2
BITMAP
00
00
FE
10
10
10
10
10
10
10
10
10
00
00
ENDCHAR
STARTCHAR U
ENCODING 85
SWIDTH 571 0
DWIDTH 8 0
BBX 8 14 0 -2
BITMAP
00
00
42
42
42
42
42
42
42
42
42
3C
00
00
ENDCHAR
STARTCHAR V
ENCODING 86
SWIDTH 571 0
DWIDTH 8 0
BBX 8 14 0 -2
BITMAP
00
00
42
42
42
42
42
24
24
24
18
18
00
00
ENDCHAR
STARTCHAR W
ENCODING 87
SWIDTH 571 0
DWIDTH 8 0
BBX 8 14 0 -2
BITMAP
00
00
82
82
82
82
82
82
92
AA
C6
82
00
00
ENDCHAR
STARTCHAR X
ENCODING 88
SWIDTH 571 0
DWIDTH 8 0
BBX 8 14 0 -2
BITMAP
00
00
42
42
24
24
18
18
24
24
42
42
00
00
ENDCHAR
STARTCHAR Y
ENCODING 89
SWIDTH 571 0
DWIDTH 8 0
BBX 8 14 0 -2
BITMAP
00
00
82
82
44
44
28
10
10
10
10
10
00
00
ENDCHAR
STARTCHAR Z
ENCODING 90
SWIDTH 571 0
DWIDTH 8 0
BBX 8 14 0 -2
BITMAP
00
00
7E
02
02
04
08
10
20
40
40
7E
00
00
ENDCHAR
STARTCHAR bracketleft
ENCODING 91
SWIDTH 571 0
DWIDTH 8 0
BBX 8 14 0 -2
BITMAP
00
00
38
20
20
20
20
20
20
20
20
38
00
00
ENDCHAR
STARTCHAR backslash
ENCODING 92
SWIDTH 571 0
DWIDTH 8 0
BBX 8 14 0 -2
BITMAP
00
00
40
40
20
20
10
10
08
08
04
04
00
00
ENDCHAR
STARTCHAR bracketright
ENCODING 93
SWIDTH 571 0
DWIDTH 8 0
BBX 8 14 0 -2
BITMAP
00
00
38
08
08
08
08
08
08
08
08
38
00
00
ENDCHAR
STARTCHAR asciicircum
ENCODING 94
SWIDTH 571 0
DWIDTH 8 0
BBX 8 14 0 -2
BITMAP
00
10
28
44
00
00
00
00
00
00
00
00
00
00
ENDCHAR
STARTCHAR underscore
ENCODING 95
SWIDTH 571 0
DWIDTH 8 0
BBX 8 14 0 -2
BITMAP
00
00
00
00
00
00
00
00
00
00
00
00
7E
00
ENDCHAR
STARTCHAR grave
ENCODING 96
SWIDTH 571 0
DWIDTH 8 0
BBX 8 14 0 -2
BITMAP
10
08
00
00
00
00
00
00
00
00
00
00
00
00
ENDCHAR
STARTCHAR a
ENCODING 97
SWIDTH 571 0
DWIDTH 8 0
BBX 8 14 0 -2
BITMAP
00
00
00
00
00
3C
02
3E
42
42
42
3E
00
00
ENDCHAR
STARTCHAR b
ENCODING 98
SWIDTH 571 0
DWIDTH 8 0
BBX 8 14 0 -2
BITMAP
00
00
40
40
40
7C
42
42
42
42
42
7C
00
00
ENDCHAR
STARTCHAR c
ENCODING 99
SWIDTH 571 0
DWIDTH 8 0
BBX 8 14 0 -2
BITMAP
00
00
00
00
00
3C
42
40
40
40
42
3C
00
00
ENDCHAR
STARTCHAR d
ENCODING 100
SWIDTH 571 0
DWIDTH 8 0
BBX 8 14 0 -2
BITMAP
00
00
02
02
02
3E
42
42
42
42
42
3E
00
00
ENDCHAR
STARTCHAR e
ENCODING 101
SWIDTH 571 0
DWIDTH 8 0
BBX 8 14 0 -2
BITMAP
00
00
00
00
00
3C
42
42
7E
40
40
3C
00
00
ENDCHAR
STARTCHAR f
ENCODING 102
SWIDTH 571 0
DWIDTH 8 0
BBX 8 14 0 -2
BITMAP
00
00
0E
10
10
7C
10
10
10
10
10
10
00
00
ENDCHAR
STARTCHAR g
ENCODING 103
SWIDTH 571 0
DWIDTH 8 0
BBX 8 14 0 -2
BITMAP
00
00
00
00
00
3E
42
42
42
42
42
3E
02
3C
ENDCHAR
STARTCHAR h
ENCODING 104
SWIDTH 571 0
DWIDTH 8 0
BBX 8 14 0 -2
BITMAP
00
00
40
40
40
7C
42
42
42
42
42
42
00
00
ENDCHAR
STARTCHAR i
ENCODING 105
SWIDTH 571 0
DWIDTH 8 0
BBX 8 14 0 -2
BITMAP
00
00
10
10
00
30
10
10
10
10
10
38
00
00
ENDCHAR
STARTCHAR j
ENCODING 106
SWIDTH 571 0
DWIDTH 8 0
BBX 8 14 0 -2
BITMAP
00
00
04
04
00
0C
04
04
04
04
04
44
44
38
ENDCHAR
STARTCHAR k
ENCODING 107
SWIDTH 571 0
DWIDTH 8 0
BBX 8 14 0 -2
BITMAP
00
00
40
40
40
42
44
48
70
48
44
42
00
00
ENDCHAR
STARTCHAR l
ENCODING 108
SWIDTH 571 0
DWIDTH 8 0
BBX 8 14 0 -2
BITMAP
00
00
30
10
10
10
10
10
10
10
10
38
00
00
ENDCHAR
STARTCHAR m
ENCODING 109
SWIDTH 571 0
DWIDTH 8 0
BBX 8 14 0 -2
BITMAP
00
00
00
00
00
FC
92
92
92
92
92
92
00
00
ENDCHAR
STARTCHAR n
ENCODING 110
SWIDTH 571 0
DWIDTH 8 0
BBX 8 14 0 -2
BITMAP
00
00
00
00
00
7C
42
42
42
42
42
42
00
00
ENDCHAR
STARTCHAR o
ENCODING 111
SWIDTH 571 0
DWIDTH 8 0
BBX 8 14 0 -2
BITMAP
00
00
00
00
00
3C
42
42
42
42
42
3C
00
00
ENDCHAR
STARTCHAR p
ENCODING 112
SWIDTH 571 0
DWIDTH 8 0
BBX 8 14 0 -2
BITMAP
00
00
00
00
00
7C
42
42
42
42
42
7C
40
40
ENDCHAR
STARTCHAR q
ENCODING 113
SWIDTH 571 0
DWIDTH 8 0
BBX 8 14 0 -2
BITMAP
00
00
00
00
00
3E
42
42
42
42
42
3E
02
02
ENDCHAR
STARTCHAR r
ENCODING 114
SWIDTH 571 0
DWIDTH 8 0
BBX 8 14 0 -2
BITMAP
00
00
00
00
00
5E
60
40
40
40
40
40
00
00
ENDCHAR
STARTCHAR s
ENCODING 115
SWIDTH 571 0
DWIDTH 8 0
BBX 8 14 0 -2
BITMAP
00
00
00
00
00
3E
40
40
3C
02
02
7C
00
00
ENDCHAR
STARTCHAR t
ENCODING 116
SWIDTH 571 0
DWIDTH 8 0
BBX 8 14 0 -2
BITMAP
00
00
10
10
10
7C
10
10
10
10
10
0E
00
00
ENDCHAR
STARTCHAR u
ENCODING 117
SWIDTH 571 0
DWIDTH 8 0
BBX 8 14 0 -2
BITMAP
00
00
00
00
00
42
42
42
42
42
42
3E
00
00
ENDCHAR
STARTCHAR v
ENCODING 118
SWIDTH 571 0
DWIDTH 8 0
BBX 8 14 0 -2
BITMAP
00
00
00
00
00
42
42
42
24
24
18
18
00
00
ENDCHAR
STARTCHAR w
ENCODING 119
SWIDTH 571 0
DWIDTH 8 0
BBX 8 14 0 -2
BITMAP
00
00
00
00
00
82
82
92
92
92
92
7C
00
00
ENDCHAR
STARTCHAR x
ENCODING 120
SWIDTH 571 0
DWIDTH 8 0
BBX 8 14 0 -2
BITMAP
00
00
00
00
00
42
42
24
18
24
42
42
00
00
ENDCHAR
STARTCHAR y
ENCODING 121
SWIDTH 571 0
DWIDTH 8 0
BBX 8 14 0 -2
BITMAP
00
00
00
00
00
42
42
42
42
42
42
3E
02
3C
ENDCHAR
STARTCHAR z
ENCODING 122
SWIDTH 571 0
DWIDTH 8 0
BBX 8 14 0 -2
BITMAP
00
00
00
00
00
7E
04
08
10
20
40
7E
00
00
ENDCHAR
STARTCHAR braceleft
ENCODING 123
SWIDTH 571 0
DWIDTH 8 0
BBX 8 14 0 -2
BITMAP
00
00
0C
10
10
10
20
10
10
10
10
0C
00
00
ENDCHAR
STARTCHAR bar
ENCODING 124
SWIDTH 571 0
DWIDTH 8 0
BBX 8 14 0 -2
BITMAP
00
00
10
10
10
10
10
10
10
10
10
10
00
00
ENDCHAR
STARTCHAR braceright
ENCODING 125
SWIDTH 571 0
DWIDTH 8 0
BBX 8 14 0 -2
BITMAP
00
00
30
08
08
08
04
08
08
08
08
30
00
00
ENDCHAR
STARTCHAR asciitilde
ENCODING 126
SWIDTH 571 0
DWIDTH 8 0
BBX 8 14 0 -2
BITMAP
00
62
92
8C
00
00
00
00
00
00
00
00
00
00
ENDCHAR
STARTCHAR nbspace
ENCODING 160
SWIDTH 571 0
DWIDTH 8 0
BBX 8 14 0 -2
BITMAP
00
00
00
00
00
00
00
00
00
00
00
00
00
00
ENDCHAR
STARTCHAR exclamdown
ENCODING 161
SWIDTH 571 0
DWIDTH 8 0
BBX 8 14 0 -2
BITMAP
00
00
10
10
00
10
10
10
10
10
10
10
00
00
ENDCHAR
STARTCHAR cent
ENCODING 162
SWIDTH 571 0
DWIDTH 8 0
BBX 8 14 0 -2
BITMAP
00
00
00
10
10
7C
92
90
90
90
92
7C
10
10
ENDCHAR
STARTCHAR sterling
ENCODING 163
SWIDTH 571 0
DWIDTH 8 0
BBX 8 14 0 -2
BITMAP
00
00
18
24
20
20
78
20
20
20
22
7E
00
00
ENDCHAR
STARTCHAR currency
ENCODING 164
SWIDTH 571 0
DWIDTH 8 0
BBX 8 14 0 -2
BITMAP
00
00
00
00
44
38
44
44
44
38
44
00
00
00
ENDCHAR
STARTCHAR yen
ENCODING 165
SWIDTH 571 0
DWIDTH 8 0
BBX 8 14 0 -2
BITMAP
00
00
82
82
44
28
10
7C
10
7C
10
10
00
00
ENDCHAR
STARTCHAR brokenbar
ENCODING 166
SWIDTH 571 0
DWIDTH 8 0
BBX 8 14 0 -2
BITMAP
00
00
10
10
10
10
00
00
10
10
10
10
00
00
ENDCHAR
STARTCHAR section
ENCODING 167
SWIDTH 571 0
DWIDTH 8 0
BBX 8 14 0 -2
BITMAP
00
38
44
40
30
48
44
44
24
18
04
44
38
00
ENDCHAR
STARTCHAR dieresis
ENCODING 168
SWIDTH 571 0
DWIDTH 8 0
BBX 8 14 0 -2
BITMAP
24
24
00
00
00
00
00
00
00
00
00
00
00
00
ENDCHAR
STARTCHAR copyright
ENCODING 169
SWIDTH 571 0
DWIDTH 8 0
BBX 8 14 0 -2
BITMAP
00
00
00
7E
81
99
A5
A1
A5
99
81
7E
00
00
ENDCHAR
STARTCHAR ordfeminine
ENCODING 170
SWIDTH 571 0
DWIDTH 8 0
BBX 8 14 0 -2
BITMAP
00
38
04
3C
44
3C
00
7C
00
00
00
00
00
00
ENDCHAR
STARTCHAR guillemotleft
ENCODING 171
SWIDTH 571 0
DWIDTH 8 0
BBX 8 14 0 -2
BITMAP
00
00
00
00
00
12
24
48
90
48
24
12
00
00
ENDCHAR
STARTCHAR logicalnot
ENCODING 172
SWIDTH 571 0
DWIDTH 8 0
BBX 8 14 0 -2
BITMAP
00
00
00
00
00
7E
02
02
02
00
00
00
00
00
ENDCHAR
STARTCHAR softhyphen
ENCODING 173
SWIDTH 571 0
DWIDTH 8 0
BBX 8 14 0 -2
BITMAP
00
00
00
00
00
00
00
3C
00
00
00
00
00
00
ENDCHAR
STARTCHAR registered
ENCODING 174
SWIDTH 571 0
DWIDTH 8 0
BBX 8 14 0 -2
BITMAP
00
00
00
7E
81
B9
A5
B9
A9
A5
81
7E
00
00
ENDCHAR
STARTCHAR macron
ENCODING 175
SWIDTH 571 0
DWIDTH 8 0
BBX 8 14 0 -2
BITMAP
3C
00
00
00
00
00
00
00
00
00
00
00
00
00
ENDCHAR
STARTCHAR degree
ENCODING 176
SWIDTH 571 0
DWIDTH 8 0
BBX 8 14 0 -2
BITMAP
00
18
24
24
18
00
00
00
00
00
00
00
00
00
ENDCHAR
STARTCHAR plusminus
ENCODING 177
SWIDTH 571 0
DWIDTH 8 0
BBX 8 14 0 -2
BITMAP
00
00
00
00
10
10
7C
10
10
00
00
7C
00
00
ENDCHAR
STARTCHAR twosuperior
ENCODING 178
SWIDTH 571 0
DWIDTH 8 0
BBX 8 14 0 -2
BITMAP
00
18
24
08
10
3C
00
00
00
00
00
00
00
00
ENDCHAR
STARTCHAR threesuperior
ENCODING 179
SWIDTH 571 0
DWIDTH 8 0
BBX 8 14 0 -2
BITMAP
00
38
04
18
04
38
00
00
00
00
00
00
00
00
ENDCHAR
STARTCHAR acute
ENCODING 180
SWIDTH 571 0
DWIDTH 8 0
BBX 8 14 0 -2
BITMAP
08
10
00
00
00
00
00
00
00
00
00
00
00
00
ENDCHAR
STARTCHAR mu
ENCODING 181
SWIDTH 571 0
DWIDTH 8 0
BBX 8 14 0 -2
BITMAP
00
00
00
00
00
42
42
42
42
42
46
7A
40
40
ENDCHAR
STARTCHAR paragraph
ENCODING 182
SWIDTH 571 0
DWIDTH 8 0
BBX 8 14 0 -2
BITMAP
00
00
7E
92
92
92
92
72
12
12
12
12
00
00
ENDCHAR
STARTCHAR periodcentered
ENCODING 183
SWIDTH 571 0
DWIDTH 8 0
BBX 8 14 0 -2
BITMAP
00
00
00
00
00
00
10
10
00
00
00
00
00
00
ENDCHAR
STARTCHAR cedilla
ENCODING 184
SWIDTH 571 0
DWIDTH 8 0
BBX 8 14 0 -2
BITMAP
00
00
00
00
00
00
00
00
00
00
00
10
10
20
ENDCHAR
STARTCHAR onesuperior
ENCODING 185
SWIDTH 571 0
DWIDTH 8 0
BBX 8 14 0 -2
BITMAP
00
10
30
10
10
10
00
00
00
00
00
00
00
00
ENDCHAR
STARTCHAR ordmasculine
ENCODING 186
SWIDTH 571 0
DWIDTH 8 0
BBX 8 14 0 -2
BITMAP
00
38
44
44
44
38
00
7C
00
00
00
00
00
00
ENDCHAR
STARTCHAR guillemotright
ENCODING 187
SWIDTH 571 0
DWIDTH 8 0
BBX 8 14 0 -2
BITMAP
00
00
00
00
00
90
48
24
12
24
48
90
00
00
ENDCHAR
STARTCHAR onequarter
ENCODING 188
SWIDTH 571 0
DWIDTH 8 0
BBX 8 14 0 -2
BITMAP
20
60
20
22
24
08
10
22
46
8A
1E
02
02
00
ENDCHAR
STARTCHAR onehalf
ENCODING 189
SWIDTH 571 0
DWIDTH 8 0
BBX 8 14 0 -2
BITMAP
20
60
20
22
24
08
10
20
4C
92
04
08
1E
00
ENDCHAR
STARTCHAR threequarters
ENCODING 190
SWIDTH 571 0
DWIDTH 8 0
BBX 8 14 0 -2
BITMAP
E0
10
60
12
E4
08
10
22
46
8A
1E
02
02
00
ENDCHAR
STARTCHAR questiondown
ENCODING 191
SWIDTH 571 0
DWIDTH 8 0
BBX 8 14 0 -2
BITMAP
00
00
10
10
00
10
10
20
42
42
42
3C
00
00
ENDCHAR
STARTCHAR Agrave
ENCODING 192
SWIDTH 571 0
DWIDTH 8 0
BBX 8 14 0 -2
BITMAP
10
08
00
3C
42
42
42
7E
42
42
42
42
00
00
ENDCHAR
STARTCHAR Aacute
ENCODING 193
SWIDTH 571 0
DWIDTH 8 0
BBX 8 14 0 -2
BITMAP
08
10
00
3C
42
42
42
7E
42
42
42
42
00
00
ENDCHAR
STARTCHAR Acircumflex
ENCODING 194
SWIDTH 571 0
DWIDTH 8 0
BBX 8 14 0 -2
BITMAP
18
24
00
3C
42
42
42
7E
42
42
42
42
00
00
ENDCHAR
STARTCHAR Atilde
ENCODING 195
SWIDTH 571 0
DWIDTH 8 0
BBX 8 14 0 -2
BITMAP
32
4C
00
3C
42
42
42
7E
42
42
42
42
00
00
ENDCHAR
STARTCHAR Adieresis
ENCODING 196
SWIDTH 571 0
DWIDTH 8 0
BBX 8 14 0 -2
BITMAP
24
24
00
3C
42
42
42
7E
42
42
42
42
00
00
ENDCHAR
STARTCHAR Aring
ENCODING 197
SWIDTH 571 0
DWIDTH 8 0
BBX 8 14 0 -2
BITMAP
18
24
18
3C
42
42
42
7E
42
42
42
42
00
00
ENDCHAR
STARTCHAR AE
ENCODING 198
SWIDTH 571 0
DWIDTH 8 0
BBX 8 14 0 -2
BITMAP
00
00
7E
90
90
90
FC
90
90
90
90
9E
00
00
ENDCHAR
STARTCHAR Ccedilla
ENCODING 199
SWIDTH 571 0
DWIDTH 8 0
BBX 8 14 0 -2
BITMAP
00
00
3C
42
42
40
40
40
40
42
42
3C
10
20
ENDCHAR
STARTCHAR Egrave
ENCODING 200
SWIDTH 571 0
DWIDTH 8 0
BBX 8 14 0 -2
BITMAP
10
08
00
7E
40
40
40
78
40
40
40
7E
00
00
ENDCHAR
STARTCHAR Eacute
ENCODING 201
SWIDTH 571 0
DWIDTH 8 0
BBX 8 14 0 -2
BITMAP
08
10
00
7E
40
40
40
78
40
40
40
7E
00
00
ENDCHAR
STARTCHAR Ecircumflex
ENCODING 202
SWIDTH 571 0
DWIDTH 8 0
BBX 8 14 0 -2
BITMAP
18
24
00
7E
40
40
40
78
40
40
40
7E
00
00
ENDCHAR
STARTCHAR Edieresis
ENCODING 203
SWIDTH 571 0
DWIDTH 8 0
BBX 8 14 0 -2
BITMAP
24
24
00
7E
40
40
40
78
40
40
40
7E
00
00
ENDCHAR
STARTCHAR Igrave
ENCODING 204
SWIDTH 571 0
DWIDTH 8 0
BBX 8 14 0 -2
BITMAP
20
10
00
38
10
10
10
10
10
10
10
38
00
00
ENDCHAR
STARTCHAR Iacute
ENCODING 205
SWIDTH 571 0
DWIDTH 8 0
BBX 8 14 0 -2
BITMAP
08
10
00
38
10
10
10
10
10
10
10
38
00
00
ENDCHAR
STARTCHAR Icircumflex
ENCODING 206
SWIDTH 571 0
DWIDTH 8 0
BBX 8 14 0 -2
BITMAP
30
48
00
38
10
10
10
10
10
10
10
38
00
00
ENDCHAR
STARTCHAR Idieresis
ENCODING 207
SWIDTH 571 0
DWIDTH 8 0
BBX 8 14 0 -2
BITMAP
44
44
00
38
10
10
10
10
10
10
10
38
00
00
ENDCHAR
STARTCHAR Eth
ENCODING 208
SWIDTH 571 0
DWIDTH 8 0
BBX 8 14 0 -2
BITMAP
00
00
78
44
42
42
F2
42
42
42
44
78
00
00
ENDCHAR
STARTCHAR Ntilde
ENCODING 209
SWIDTH 571 0
DWIDTH 8 0
BBX 8 14 0 -2
BITMAP
32
4C
00
42
42
62
52
4A
46
42
42
42
00
00
ENDCHAR
STARTCHAR Ograve
ENCODING 210
SWIDTH 571 0
DWIDTH 8 0
BBX 8 14 0 -2
BITMAP
10
08
00
3C
42
42
42
42
42
42
42
3C
00
00
ENDCHAR
STARTCHAR Oacute
ENCODING 211
SWIDTH 571 0
DWIDTH 8 0
BBX 8 14 0 -2
BITMAP
08
10
00
3C
42
42
42
42
42
42
42
3C
00
00
ENDCHAR
STARTCHAR Ocircumflex
ENCODING 212
SWIDTH 571 0
DWIDTH 8 0
BBX 8 14 0 -2
BITMAP
18
24
00
3C
42
42
42
42
42
42
42
3C
00
00
ENDCHAR
STARTCHAR Otilde
ENCODING 213
SWIDTH 571 0
DWIDTH 8 0
BBX 8 14 0 -2
BITMAP
32
4C
00
3C
42
42
42
42
42
42
42
3C
00
00
ENDCHAR
STARTCHAR Odieresis
ENCODING 214
SWIDTH 571 0
DWIDTH 8 0
BBX 8 14 0 -2
BITMAP
24
24
00
3C
42
42
42
42
42
42
42
3C
00
00
ENDCHAR
STARTCHAR multiply
ENCODING 215
SWIDTH 571 0
DWIDTH 8 0
BBX 8 14 0 -2
BITMAP
00
00
00
00
00
42
24
18
24
42
00
00
00
00
ENDCHAR
STARTCHAR Oslash
ENCODING 216
SWIDTH 571 0
DWIDTH 8 0
BBX 8 14 0 -2
BITMAP
00
02
3A
44
46
4A
4A
52
52
62
22
5C
40
00
ENDCHAR
STARTCHAR Ugrave
ENCODING 217
SWIDTH 571 0
DWIDTH 8 0
BBX 8 14 0 -2
BITMAP
10
08
42
42
42
42
42
42
42
42
42
3C
00
00
ENDCHAR
STARTCHAR Uacute
ENCODING 218
SWIDTH 571 0
DWIDTH 8 0
BBX 8 14 0 -2
BITMAP
08
10
42
42
42
42
42
42
42
42
42
3C
00
00
ENDCHAR
STARTCHAR Ucircumflex
ENCODING 219
SWIDTH 571 0
DWIDTH 8 0
BBX 8 14 0 -2
BITMAP
18
24
00
42
42
42
42
42
42
42
42
3C
00
00
ENDCHAR
STARTCHAR Udieresis
ENCODING 220
SWIDTH 571 0
DWIDTH 8 0
BBX 8 14 0 -2
BITMAP
24
24
00
42
42
42
42
42
42
42
42
3C
00
00
ENDCHAR
STARTCHAR Yacute
ENCODING 221
SWIDTH 571 0
DWIDTH 8 0
BBX 8 14 0 -2
BITMAP
08
10
82
82
44
44
28
10
10
10
10
10
00
00
ENDCHAR
STARTCHAR Thorn
ENCODING 222
SWIDTH 571 0
DWIDTH 8 0
BBX 8 14 0 -2
BITMAP
00
00
40
40
7C
42
42
42
42
7C
40
40
00
00
ENDCHAR
STARTCHAR germandbls
ENCODING 223
SWIDTH 571 0
DWIDTH 8 0
BBX 8 14 0 -2
BITMAP
00
00
38
44
44
48
7C
42
42
42
62
5C
00
00
ENDCHAR
STARTCHAR agrave
ENCODING 224
SWIDTH 571 0
DWIDTH 8 0
BBX 8 14 0 -2
BITMAP
00
00
10
08
00
3C
02
3E
42
42
42
3E
00
00
ENDCHAR
STARTCHAR aacute
ENCODING 225
SWIDTH 571 0
DWIDTH 8 0
BBX 8 14 0 -2
BITMAP
00
00
08
10
00
3C
02
3E
42
42
42
3E
00
00
ENDCHAR
STARTCHAR acircumflex
ENCODING 226
SWIDTH 571 0
DWIDTH 8 0
BBX 8 14 0 -2
BITMAP
00
00
18
24
00
3C
02
3E
42
42
42
3E
00
00
ENDCHAR
STARTCHAR atilde
ENCODING 227
SWIDTH 571 0
DWIDTH 8 0
BBX 8 14 0 -2
BITMAP
00
00
32
4C
00
3C
02
3E
42
42
42
3E
00
00
ENDCHAR
STARTCHAR adieresis
ENCODING 228
SWIDTH 571 0
DWIDTH 8 0
BBX 8 14 0 -2
BITMAP
00
00
24
24
00
3C
02
3E
42
42
42
3E
00
00
ENDCHAR
STARTCHAR aring
ENCODING 229
SWIDTH 571 0
DWIDTH 8 0
BBX 8 14 0 -2
BITMAP
00
00
18
24
18
3C
02
3E
42
42
42
3E
00
00
ENDCHAR
STARTCHAR ae
ENCODING 230
SWIDTH 571 0
DWIDTH 8 0
BBX 8 14 0 -2
BITMAP
00
00
00
00
00
6C
12
72
9E
90
90
6C
00
00
ENDCHAR
STARTCHAR ccedilla
ENCODING 231
SWIDTH 571 0
DWIDTH 8 0
BBX 8 14 0 -2
BITMAP
00
00
00
00
00
3C
42
40
40
40
42
3C
10
20
ENDCHAR
STARTCHAR egrave
ENCODING 232
SWIDTH 571 0
DWIDTH 8 0
BBX 8 14 0 -2
BITMAP
00
00
10
08
00
3C
42
42
7E
40
40
3C
00
00
ENDCHAR
STARTCHAR eacute
ENCODING 233
SWIDTH 571 0
DWIDTH 8 0
BBX 8 14 0 -2
BITMAP
00
00
08
10
00
3C
42
42
7E
40
40
3C
00
00
ENDCHAR
STARTCHAR ecircumflex
ENCODING 234
SWIDTH 571 0
DWIDTH 8 0
BBX 8 14 0 -2
BITMAP
00
00
18
24
00
3C
42
42
7E
40
40
3C
00
00
ENDCHAR
STARTCHAR edieresis
ENCODING 235
SWIDTH 571 0
DWIDTH 8 0
BBX 8 14 0 -2
BITMAP
00
00
24
24
00
3C
42
42
7E
40
40
3C
00
00
ENDCHAR
STARTCHAR igrave
ENCODING 236
SWIDTH 571 0
DWIDTH 8 0
BBX 8 14 0 -2
BITMAP
00
00
20
10
00
30
10
10
10
10
10
38
00
00
ENDCHAR
STARTCHAR iacute
ENCODING 237
SWIDTH 571 0
DWIDTH 8 0
BBX 8 14 0 -2
BITMAP
00
00
08
10
00
30
10
10
10
10
10
38
00
00
ENDCHAR
STARTCHAR icircumflex
ENCODING 238
SWIDTH 571 0
DWIDTH 8 0
BBX 8 14 0 -2
BITMAP
00
00
30
48
00
30
10
10
10
10
10
38
00
00
ENDCHAR
STARTCHAR idieresis
ENCODING 239
SWIDTH 571 0
DWIDTH 8 0
BBX 8 14 0 -2
BITMAP
00
00
48
48
00
30
10
10
10
10
10
38
00
00
ENDCHAR
STARTCHAR eth
ENCODING 240
SWIDTH 571 0
DWIDTH 8 0
BBX 8 14 0 -2
BITMAP
00
00
28
10
28
3C
42
42
42
42
42
3C
00
00
ENDCHAR
STARTCHAR ntilde
ENCODING 241
SWIDTH 571 0
DWIDTH 8 0
BBX 8 14 0 -2
BITMAP
00
00
32
4C
00
7C
42
42
42
42
42
42
00
00
ENDCHAR
STARTCHAR ograve
ENCODING 242
SWIDTH 571 0
DWIDTH 8 0
BBX 8 14 0 -2
BITMAP
00
00
10
08
00
3C
42
42
42
42
42
3C
00
00
ENDCHAR
STARTCHAR oacute
ENCODING 243
SWIDTH 571 0
DWIDTH 8 0
BBX 8 14 0 -2
BITMAP
00
00
08
10
00
3C
42
42
42
42
42
3C
00
00
ENDCHAR
STARTCHAR ocircumflex
ENCODING 244
SWIDTH 571 0
DWIDTH 8 0
BBX 8 14 0 -2
BITMAP
00
00
18
24
00
3C
42
42
42
42
42
3C
00
00
ENDCHAR
STARTCHAR otilde
ENCODING 245
SWIDTH 571 0
DWIDTH 8 0
BBX 8 14 0 -2
BITMAP
00
00
32
4C
00
3C
42
42
42
42
42
3C
00
00
ENDCHAR
STARTCHAR odieresis
ENCODING 246
SWIDTH 571 0
DWIDTH 8 0
BBX 8 14 0 -2
BITMAP
00
00
24
24
00
3C
42
42
42
42
42
3C
00
00
ENDCHAR
STARTCHAR divide
ENCODING 247
SWIDTH 571 0
DWIDTH 8 0
BBX 8 14 0 -2
BITMAP
00
00
00
00
10
10
00
7C
00
10
10
00
00
00
ENDCHAR
STARTCHAR oslash
ENCODING 248
SWIDTH 571 0
DWIDTH 8 0
BBX 8 14 0 -2
BITMAP
00
00
00
00
02
3C
46
4A
52
62
42
BC
00
00
ENDCHAR
STARTCHAR ugrave
ENCODING 249
SWIDTH 571 0
DWIDTH 8 0
BBX 8 14 0 -2
BITMAP
00
00
10
08
00
42
42
42
42
42
42
3E
00
00
ENDCHAR
STARTCHAR uacute
ENCODING 250
SWIDTH 571 0
DWIDTH 8 0
BBX 8 14 0 -2
BITMAP
00
00
08
10
00
42
42
42
42
42
42
3E
00
00
ENDCHAR
STARTCHAR ucircumflex
ENCODING 251
SWIDTH 571 0
DWIDTH 8 0
BBX 8 14 0 -2
BITMAP
00
00
18
24
00
42
42
42
42
42
42
3E
00
00
ENDCHAR
STARTCHAR udieresis
ENCODING 252
SWIDTH 571 0
DWIDTH 8 0
BBX 8 14 0 -2
BITMAP
00
00
24
24
00
42
42
42
42
42
42
3E
00
00
ENDCHAR
STARTCHAR yacute
ENCODING 253
SWIDTH 571 0
DWIDTH 8 0
BBX 8 14 0 -2
BITMAP
00
00
08
10
00
42
42
42
42
42
42
3E
02
3C
ENDCHAR
STARTCHAR thorn
ENCODING 254
SWIDTH 571 0
DWIDTH 8 0
BBX 8 14 0 -2
BITMAP
00
00
40
40
40
7C
42
42
42
42
42
7C
40
40
ENDCHAR
STARTCHAR ydieresis
ENCODING 255
SWIDTH 571 0
DWIDTH 8 0
BBX 8 14 0 -2
BITMAP
00
00
24
24
00
42
42
42
42
42
42
3E
02
3C
ENDCHAR
STARTCHAR Amacron
ENCODING 256
SWIDTH 571 0
DWIDTH 8 0
BBX 8 14 0 -2
BITMAP
3C
00
3C
42
42
42
42
7E
42
42
42
42
00
00
ENDCHAR
STARTCHAR amacron
ENCODING 257
SWIDTH 571 0
DWIDTH 8 0
BBX 8 14 0 -2
BITMAP
00
00
00
3C
00
3C
02
3E
42
42
42
3E
00
00
ENDCHAR
STARTCHAR Abreve
ENCODING 258
SWIDTH 571 0
DWIDTH 8 0
BBX 8 14 0 -2
BITMAP
24
18
00
3C
42
42
42
7E
42
42
42
42
00
00
ENDCHAR
STARTCHAR abreve
ENCODING 259
SWIDTH 571 0
DWIDTH 8 0
BBX 8 14 0 -2
BITMAP
00
00
24
18
00
3C
02
3E
42
42
42
3E
00
00
ENDCHAR
STARTCHAR Aogonek
ENCODING 260
SWIDTH 571 0
DWIDTH 8 0
BBX 8 14 0 -2
BITMAP
00
00
3C
42
42
42
42
7E
42
42
42
42
04
03
ENDCHAR
STARTCHAR aogonek
ENCODING 261
SWIDTH 571 0
DWIDTH 8 0
BBX 8 14 0 -2
BITMAP
00
00
00
00
00
3C
02
3E
42
42
42
3E
04
03
ENDCHAR
STARTCHAR Cacute
ENCODING 262
SWIDTH 571 0
DWIDTH 8 0
BBX 8 14 0 -2
BITMAP
08
10
00
3C
42
42
40
40
40
42
42
3C
00
00
ENDCHAR
STARTCHAR cacute
ENCODING 263
SWIDTH 571 0
DWIDTH 8 0
BBX 8 14 0 -2
BITMAP
00
00
08
10
00
3C
42
40
40
40
42
3C
00
00
ENDCHAR
STARTCHAR Ccircumflex
ENCODING 264
SWIDTH 571 0
DWIDTH 8 0
BBX 8 14 0 -2
BITMAP
18
24
00
3C
42
42
40
40
40
42
42
3C
00
00
ENDCHAR
STARTCHAR ccircumflex
ENCODING 265
SWIDTH 571 0
DWIDTH 8 0
BBX 8 14 0 -2
BITMAP
00
00
18
24
00
3C
42
40
40
40
42
3C
00
00
ENDCHAR
STARTCHAR Cdotaccent
ENCODING 266
SWIDTH 571 0
DWIDTH 8 0
BBX 8 14 0 -2
BITMAP
10
10
00
3C
42
42
40
40
40
42
42
3C
00
00
ENDCHAR
STARTCHAR cdotaccent
ENCODING 267
SWIDTH 571 0
DWIDTH 8 0
BBX 8 14 0 -2
BITMAP
00
00
10
10
00
3C
42
40
40
40
42
3C
00
00
ENDCHAR
STARTCHAR Ccaron
ENCODING 268
SWIDTH 571 0
DWIDTH 8 0
BBX 8 14 0 -2
BITMAP
24
18
00
3C
42
42
40
40
40
42
42
3C
00
00
ENDCHAR
STARTCHAR ccaron
ENCODING 269
SWIDTH 571 0
DWIDTH 8 0
BBX 8 14 0 -2
BITMAP
00
00
24
18
00
3C
42
40
40
40
42
3C
00
00
ENDCHAR
STARTCHAR Dcaron
ENCODING 270
SWIDTH 571 0
DWIDTH 8 0
BBX 8 14 0 -2
BITMAP
24
18
00
78
44
42
42
42
42
42
44
78
00
00
ENDCHAR
STARTCHAR dcaron
ENCODING 271
SWIDTH 571 0
DWIDTH 8 0
BBX 8 14 0 -2
BITMAP
24
18
02
02
02
3E
42
42
42
42
42
3E
00
00
ENDCHAR
STARTCHAR Dcroat
ENCODING 272
SWIDTH 571 0
DWIDTH 8 0
BBX 8 14 0 -2
BITMAP
00
00
78
44
42
42
F2
42
42
42
44
78
00
00
ENDCHAR
STARTCHAR dcroat
ENCODING 273
SWIDTH 571 0
DWIDTH 8 0
BBX 8 14 0 -2
BITMAP
00
00
02
0F
02
3E
42
42
42
42
42
3E
00
00
ENDCHAR
STARTCHAR Emacron
ENCODING 274
SWIDTH 571 0
DWIDTH 8 0
BBX 8 14 0 -2
BITMAP
3C
00
7E
40
40
40
78
40
40
40
40
7E
00
00
ENDCHAR
STARTCHAR emacron
ENCODING 275
SWIDTH 571 0
DWIDTH 8 0
BBX 8 14 0 -2
BITMAP
00
00
00
3C
00
3C
42
42
7E
40
40
3C
00
00
ENDCHAR
STARTCHAR Ebreve
ENCODING 276
SWIDTH 571 0
DWIDTH 8 0
BBX 8 14 0 -2
BITMAP
24
18
00
7E
40
40
40
78
40
40
40
7E
00
00
ENDCHAR
STARTCHAR ebreve
ENCODING 277
SWIDTH 571 0
DWIDTH 8 0
BBX 8 14 0 -2
BITMAP
00
00
24
18
00
3C
42
42
7E
40
40
3C
00
00
ENDCHAR
STARTCHAR Edotaccent
ENCODING 278
SWIDTH 571 0
DWIDTH 8 0
BBX 8 14 0 -2
BITMAP
10
10
00
7E
40
40
40
78
40
40
40
7E
00
00
ENDCHAR
STARTCHAR edotaccent
ENCODING 279
SWIDTH 571 0
DWIDTH 8 0
BBX 8 14 0 -2
BITMAP
00
00
10
10
00
3C
42
42
7E
40
40
3C
00
00
ENDCHAR
STARTCHAR Eogonek
ENCODING 280
SWIDTH 571 0
DWIDTH 8 0
BBX 8 14 0 -2
BITMAP
00
00
7E
40
40
40
78
40
40
40
40
7E
04
03
ENDCHAR
STARTCHAR eogonek
ENCODING 281
SWIDTH 571 0
DWIDTH 8 0
BBX 8 14 0 -2
BITMAP
00
00
00
00
00
3C
42
42
7E
40
40
3C
08
06
ENDCHAR
STARTCHAR Ecaron
ENCODING 282
SWIDTH 571 0
DWIDTH 8 0
BBX 8 14 0 -2
BITMAP
24
18
00
7E
40
40
40
78
40
40
40
7E
00
00
ENDCHAR
STARTCHAR ecaron
ENCODING 283
SWIDTH 571 0
DWIDTH 8 0
BBX 8 14 0 -2
BITMAP
00
00
24
18
00
3C
42
42
7E
40
40
3C
00
00
ENDCHAR
STARTCHAR Gcircumflex
ENCODING 284
SWIDTH 571 0
DWIDTH 8 0
BBX 8 14 0 -2
BITMAP
18
24
00
3C
42
42
40
4E
42
42
42
3C
00
00
ENDCHAR
STARTCHAR gcircumflex
ENCODING 285
SWIDTH 571 0
DWIDTH 8 0
BBX 8 14 0 -2
BITMAP
00
00
18
24
00
3E
42
42
42
42
42
3E
02
3C
ENDCHAR
STARTCHAR Gbreve
ENCODING 286
SWIDTH 571 0
DWIDTH 8 0
BBX 8 14 0 -2
BITMAP
24
18
00
3C
42
42
40
4E
42
42
42
3C
00
00
ENDCHAR
STARTCHAR gbreve
ENCODING 287
SWIDTH 571 0
DWIDTH 8 0
BBX 8 14 0 -2
BITMAP
00
00
24
18
00
3E
42
42
42
42
42
3E
02
3C
ENDCHAR
STARTCHAR Gdotaccent
ENCODING 288
SWIDTH 571 0
DWIDTH 8 0
BBX 8 14 0 -2
BITMAP
10
10
00
3C
42
42
40
4E
42
42
42
3C
00
00
ENDCHAR
STARTCHAR gdotaccent
ENCODING 289
SWIDTH 571 0
DWIDTH 8 0
BBX 8 14 0 -2
BITMAP
00
00
08
08
00
3E
42
42
42
42
42
3E
02
3C
ENDCHAR
STARTCHAR Gcommaaccent
ENCODING 290
SWIDTH 571 0
DWIDTH 8 0
BBX 8 14 0 -2
BITMAP
00
00
3C
42
42
40
40
4E
42
42
42
3C
10
20
ENDCHAR
STARTCHAR gcommaaccent
ENCODING 291
SWIDTH 571 0
DWIDTH 8 0
BBX 8 14 0 -2
BITMAP
00
04
08
08
00
3E
42
42
42
42
42
3E
02
3C
ENDCHAR
STARTCHAR Hcircumflex
ENCODING 292
SWIDTH 571 0
DWIDTH 8 0
BBX 8 14 0 -2
BITMAP
18
24
00
42
42
42
42
7E
42
42
42
42
00
00
ENDCHAR
STARTCHAR hcircumflex
ENCODING 293
SWIDTH 571 0
DWIDTH 8 0
BBX 8 14 0 -2
BITMAP
0C
12
40
40
40
7C
42
42
42
42
42
42
00
00
ENDCHAR
STARTCHAR Hbar
ENCODING 294
SWIDTH 571 0
DWIDTH 8 0
BBX 8 14 0 -2
BITMAP
00
00
42
FF
42
42
7E
42
42
42
42
42
00
00
ENDCHAR
STARTCHAR hbar
ENCODING 295
SWIDTH 571 0
DWIDTH 8 0
BBX 8 14 0 -2
BITMAP
00
00
40
F8
40
7C
42
42
42
42
42
42
00
00
ENDCHAR
STARTCHAR Itilde
ENCODING 296
SWIDTH 571 0
DWIDTH 8 0
BBX 8 14 0 -2
BITMAP
32
4C
00
38
10
10
10
10
10
10
10
38
00
00
ENDCHAR
STARTCHAR itilde
ENCODING 297
SWIDTH 571 0
DWIDTH 8 0
BBX 8 14 0 -2
BITMAP
00
00
34
58
00
30
10
10
10
10
10
38
00
00
ENDCHAR
STARTCHAR Imacron
ENCODING 298
SWIDTH 571 0
DWIDTH 8 0
BBX 8 14 0 -2
BITMAP
7C
00
38
10
10
10
10
10
10
10
10
38
00
00
ENDCHAR
STARTCHAR imacron
ENCODING 299
SWIDTH 571 0
DWIDTH 8 0
BBX 8 14 0 -2
BITMAP
00
00
00
78
00
30
10
10
10
10
10
38
00
00
ENDCHAR
STARTCHAR Ibreve
ENCODING 300
SWIDTH 571 0
DWIDTH 8 0
BBX 8 14 0 -2
BITMAP
48
30
00
38
10
10
10
10
10
10
10
38
00
00
ENDCHAR
STARTCHAR ibreve
ENCODING 301
SWIDTH 571 0
DWIDTH 8 0
BBX 8 14 0 -2
BITMAP
00
00
48
30
00
30
10
10
10
10
10
38
00
00
ENDCHAR
STARTCHAR Iogonek
ENCODING 302
SWIDTH 571 0
DWIDTH 8 0
BBX 8 14 0 -2
BITMAP
00
00
38
10
10
10
10
10
10
10
10
38
10
0C
ENDCHAR
STARTCHAR iogonek
ENCODING 303
SWIDTH 571 0
DWIDTH 8 0
BBX 8 14 0 -2
BITMAP
00
00
10
10
00
30
10
10
10
10
10
38
10
0C
ENDCHAR
STARTCHAR Idotaccent
ENCODING 304
SWIDTH 571 0
DWIDTH 8 0
BBX 8 14 0 -2
BITMAP
10
10
00
38
10
10
10
10
10
10
10
38
00
00
ENDCHAR
STARTCHAR dotlessi
ENCODING 305
SWIDTH 571 0
DWIDTH 8 0
BBX 8 14 0 -2
BITMAP
00
00
00
00
00
30
10
10
10
10
10
38
00
00
ENDCHAR
STARTCHAR IJ
ENCODING 306
SWIDTH 571 0
DWIDTH 8 0
BBX 8 14 0 -2
BITMAP
00
00
E7
42
42
42
42
42
42
52
52
EC
00
00
ENDCHAR
STARTCHAR ij
ENCODING 307
SWIDTH 571 0
DWIDTH 8 0
BBX 8 14 0 -2
BITMAP
00
00
42
42
00
C6
42
42
42
42
42
F2
12
0C
ENDCHAR
STARTCHAR Jcircumflex
ENCODING 308
SWIDTH 571 0
DWIDTH 8 0
BBX 8 14 0 -2
BITMAP
0C
12
00
0E
04
04
04
04
04
44
44
38
00
00
ENDCHAR
STARTCHAR jcircumflex
ENCODING 309
SWIDTH 571 0
DWIDTH 8 0
BBX 8 14 0 -2
BITMAP
00
00
0C
12
00
0C
04
04
04
04
04
44
44
38
ENDCHAR
STARTCHAR Kcommaaccent
ENCODING 310
SWIDTH 571 0
DWIDTH 8 0
BBX 8 14 0 -2
BITMAP
00
00
42
44
48
50
60
60
50
48
44
52
10
20
ENDCHAR
STARTCHAR kcommaaccent
ENCODING 311
SWIDTH 571 0
DWIDTH 8 0
BBX 8 14 0 -2
BITMAP
00
00
40
40
40
42
44
48
70
48
44
52
10
20
ENDCHAR
STARTCHAR kgreenlandic
ENCODING 312
SWIDTH 571 0
DWIDTH 8 0
BBX 8 14 0 -2
BITMAP
00
00
00
00
00
42
44
48
70
48
44
42
00
00
ENDCHAR
STARTCHAR Lacute
ENCODING 313
SWIDTH 571 0
DWIDTH 8 0
BBX 8 14 0 -2
BITMAP
20
40
00
40
40
40
40
40
40
40
40
7E
00
00
ENDCHAR
STARTCHAR lacute
ENCODING 314
SWIDTH 571 0
DWIDTH 8 0
BBX 8 14 0 -2
BITMAP
08
10
00
30
10
10
10
10
10
10
10
38
00
00
ENDCHAR
STARTCHAR Lcommaaccent
ENCODING 315
SWIDTH 571 0
DWIDTH 8 0
BBX 8 14 0 -2
BITMAP
00
00
40
40
40
40
40
40
40
40
40
7E
10
20
ENDCHAR
STARTCHAR lcommaaccent
ENCODING 316
SWIDTH 571 0
DWIDTH 8 0
BBX 8 14 0 -2
BITMAP
00
00
30
10
10
10
10
10
10
10
10
38
10
20
ENDCHAR
STARTCHAR Lcaron
ENCODING 317
SWIDTH 571 0
DWIDTH 8 0
BBX 8 14 0 -2
BITMAP
24
18
40
40
40
40
40
40
40
40
40
7E
00
00
ENDCHAR
STARTCHAR lcaron
ENCODING 318
SWIDTH 571 0
DWIDTH 8 0
BBX 8 14 0 -2
BITMAP
48
30
00
30
10
10
10
10
10
10
10
38
00
00
ENDCHAR
STARTCHAR Ldotaccent
ENCODING 319
SWIDTH 571 0
DWIDTH 8 0
BBX 8 14 0 -2
BITMAP
00
00
40
40
40
40
44
44
40
40
40
7E
00
00
ENDCHAR
STARTCHAR ldotaccent
ENCODING 320
SWIDTH 571 0
DWIDTH 8 0
BBX 8 14 0 -2
BITMAP
00
00
30
10
10
10
11
11
10
10
10
38
00
00
ENDCHAR
STARTCHAR Lslash
ENCODING 321
SWIDTH 571 0
DWIDTH 8 0
BBX 8 14 0 -2
BITMAP
00
00
40
40
40
40
60
C0
40
40
40
7E
00
00
ENDCHAR
STARTCHAR lslash
ENCODING 322
SWIDTH 571 0
DWIDTH 8 0
BBX 8 14 0 -2
BITMAP
00
00
30
10
10
10
18
30
10
10
10
38
00
00
ENDCHAR
STARTCHAR Nacute
ENCODING 323
SWIDTH 571 0
DWIDTH 8 0
BBX 8 14 0 -2
BITMAP
08
10
42
42
42
62
52
4A
46
42
42
42
00
00
ENDCHAR
STARTCHAR nacute
ENCODING 324
SWIDTH 571 0
DWIDTH 8 0
BBX 8 14 0 -2
BITMAP
00
00
08
10
00
7C
42
42
42
42
42
42
00
00
ENDCHAR
STARTCHAR Ncommaaccent
ENCODING 325
SWIDTH 571 0
DWIDTH 8 0
BBX 8 14 0 -2
BITMAP
00
00
42
42
42
62
52
4A
46
42
42
52
10
20
ENDCHAR
STARTCHAR ncommaaccent
ENCODING 326
SWIDTH 571 0
DWIDTH 8 0
BBX 8 14 0 -2
BITMAP
00
00
00
00
00
7C
42
42
42
42
42
52
10
20
ENDCHAR
STARTCHAR Ncaron
ENCODING 327
SWIDTH 571 0
DWIDTH 8 0
BBX 8 14 0 -2
BITMAP
24
18
42
42
42
62
52
4A
46
42
42
42
00
00
ENDCHAR
STARTCHAR ncaron
ENCODING 328
SWIDTH 571 0
DWIDTH 8 0
BBX 8 14 0 -2
BITMAP
00
00
24
18
00
7C
42
42
42
42
42
42
00
00
ENDCHAR
STARTCHAR quoterightn
ENCODING 329
SWIDTH 571 0
DWIDTH 8 0
BBX 8 14 0 -2
BITMAP
00
40
40
80
00
7C
42
42
42
42
42
42
00
00
ENDCHAR
STARTCHAR Eng
ENCODING 330
SWIDTH 571 0
DWIDTH 8 0
BBX 8 14 0 -2
BITMAP
00
00
42
42
42
62
52
4A
46
42
42
42
02
04
ENDCHAR
STARTCHAR eng
ENCODING 331
SWIDTH 571 0
DWIDTH 8 0
BBX 8 14 0 -2
BITMAP
00
00
00
00
00
7C
42
42
42
42
42
42
02
04
ENDCHAR
STARTCHAR Omacron
ENCODING 332
SWIDTH 571 0
DWIDTH 8 0
BBX 8 14 0 -2
BITMAP
3C
00
3C
42
42
42
42
42
42
42
42
3C
00
00
ENDCHAR
STARTCHAR omacron
ENCODING 333
SWIDTH 571 0
DWIDTH 8 0
BBX 8 14 0 -2
BITMAP
00
00
00
3C
00
3C
42
42
42
42
42
3C
00
00
ENDCHAR
STARTCHAR Obreve
ENCODING 334
SWIDTH 571 0
DWIDTH 8 0
BBX 8 14 0 -2
BITMAP
24
18
00
3C
42
42
42
42
42
42
42
3C
00
00
ENDCHAR
STARTCHAR obreve
ENCODING 335
SWIDTH 571 0
DWIDTH 8 0
BBX 8 14 0 -2
BITMAP
00
00
24
18
00
3C
42
42
42
42
42
3C
00
00
ENDCHAR
STARTCHAR Ohungarumlaut
ENCODING 336
SWIDTH 571 0
DWIDTH 8 0
BBX 8 14 0 -2
BITMAP
12
24
00
3C
42
42
42
42
42
42
42
3C
00
00
ENDCHAR
STARTCHAR ohungarumlaut
ENCODING 337
SWIDTH 571 0
DWIDTH 8 0
BBX 8 14 0 -2
BITMAP
00
00
12
24
00
3C
42
42
42
42
42
3C
00
00
ENDCHAR
STARTCHAR OE
ENCODING 338
SWIDTH 571 0
DWIDTH 8 0
BBX 8 14 0 -2
BITMAP
00
00
7E
90
90
90
9C
90
90
90
90
7E
00
00
ENDCHAR
STARTCHAR oe
ENCODING 339
SWIDTH 571 0
DWIDTH 8 0
BBX 8 14 0 -2
BITMAP
00
00
00
00
00
7C
92
92
9E
90
90
7C
00
00
ENDCHAR
STARTCHAR Racute
ENCODING 340
SWIDTH 571 0
DWIDTH 8 0
BBX 8 14 0 -2
BITMAP
08
10
00
7C
42
42
42
7C
50
48
44
42
00
00
ENDCHAR
STARTCHAR racute
ENCODING 341
SWIDTH 571 0
DWIDTH 8 0
BBX 8 14 0 -2
BITMAP
00
00
08
10
00
5E
60
40
40
40
40
40
00
00
ENDCHAR
STARTCHAR Rcommaaccent
ENCODING 342
SWIDTH 571 0
DWIDTH 8 0
BBX 8 14 0 -2
BITMAP
00
00
7C
42
42
42
42
7C
50
48
44
52
10
20
ENDCHAR
STARTCHAR rcommaaccent
ENCODING 343
SWIDTH 571 0
DWIDTH 8 0
BBX 8 14 0 -2
BITMAP
00
00
00
00
00
5E
60
40
40
40
40
60
20
40
ENDCHAR
STARTCHAR Rcaron
ENCODING 344
SWIDTH 571 0
DWIDTH 8 0
BBX 8 14 0 -2
BITMAP
24
18
00
7C
42
42
42
7C
50
48
44
42
00
00
ENDCHAR
STARTCHAR rcaron
ENCODING 345
SWIDTH 571 0
DWIDTH 8 0
BBX 8 14 0 -2
BITMAP
00
00
24
18
00
5E
60
40
40
40
40
40
00
00
ENDCHAR
STARTCHAR Sacute
ENCODING 346
SWIDTH 571 0
DWIDTH 8 0
BBX 8 14 0 -2
BITMAP
08
10
00
3C
42
40
40
3C
02
02
42
3C
00
00
ENDCHAR
STARTCHAR sacute
ENCODING 347
SWIDTH 571 0
DWIDTH 8 0
BBX 8 14 0 -2
BITMAP
00
00
04
08
00
3E
40
40
3C
02
02
7C
00
00
ENDCHAR
STARTCHAR Scircumflex
ENCODING 348
SWIDTH 571 0
DWIDTH 8 0
BBX 8 14 0 -2
BITMAP
18
24
00
3C
42
40
40
3C
02
02
42
3C
00
00
ENDCHAR
STARTCHAR scircumflex
ENCODING 349
SWIDTH 571 0
DWIDTH 8 0
BBX 8 14 0 -2
BITMAP
00
00
18
24
00
3E
40
40
3C
02
02
7C
00
00
ENDCHAR
STARTCHAR Scedilla
ENCODING 350
SWIDTH 571 0
DWIDTH 8 0
BBX 8 14 0 -2
BITMAP
00
00
3C
42
40
40
3C
02
02
42
42
3C
10
20
ENDCHAR
STARTCHAR scedilla
ENCODING 351
SWIDTH 571 0
DWIDTH 8 0
BBX 8 14 0 -2
BITMAP
00
00
00
00
00
3E
40
40
3C
02
02
7C
10
20
ENDCHAR
STARTCHAR Scaron
ENCODING 352
SWIDTH 571 0
DWIDTH 8 0
BBX 8 14 0 -2
BITMAP
24
18
00
3C
42
40
40
3C
02
02
42
3C
00
00
ENDCHAR
STARTCHAR scaron
ENCODING 353
SWIDTH 571 0
DWIDTH 8 0
BBX 8 14 0 -2
BITMAP
00
00
24
18
00
3E
40
40
3C
02
02
7C
00
00
ENDCHAR
STARTCHAR Tcedilla
ENCODING 354
SWIDTH 571 0
DWIDTH 8 0
BBX 8 14 0 -2
BITMAP
00
00
FE
10
10
10
10
10
10
10
10
18
08
10
ENDCHAR
STARTCHAR tcedilla
ENCODING 355
SWIDTH 571 0
DWIDTH 8 0
BBX 8 14 0 -2
BITMAP
00
00
10
10
10
7C
10
10
10
10
10
0E
04
08
ENDCHAR
STARTCHAR Tcaron
ENCODING 356
SWIDTH 571 0
DWIDTH 8 0
BBX 8 14 0 -2
BITMAP
24
18
00
FE
10
10
10
10
10
10
10
10
00
00
ENDCHAR
STARTCHAR tcaron
ENCODING 357
SWIDTH 571 0
DWIDTH 8 0
BBX 8 14 0 -2
BITMAP
24
18
00
10
10
7C
10
10
10
10
10
0E
00
00
ENDCHAR
STARTCHAR Tbar
ENCODING 358
SWIDTH 571 0
DWIDTH 8 0
BBX 8 14 0 -2
BITMAP
00
00
FE
10
10
10
7C
10
10
10
10
10
00
00
ENDCHAR
STARTCHAR tbar
ENCODING 359
SWIDTH 571 0
DWIDTH 8 0
BBX 8 14 0 -2
BITMAP
00
00
10
10
10
7C
10
38
10
10
10
0E
00
00
ENDCHAR
STARTCHAR Utilde
ENCODING 360
SWIDTH 571 0
DWIDTH 8 0
BBX 8 14 0 -2
BITMAP
32
4C
00
42
42
42
42
42
42
42
42
3C
00
00
ENDCHAR
STARTCHAR utilde
ENCODING 361
SWIDTH 571 0
DWIDTH 8 0
BBX 8 14 0 -2
BITMAP
00
00
32
4C
00
42
42
42
42
42
42
3E
00
00
ENDCHAR
STARTCHAR Umacron
ENCODING 362
SWIDTH 571 0
DWIDTH 8 0
BBX 8 14 0 -2
BITMAP
3C
00
42
42
42
42
42
42
42
42
42
3C
00
00
ENDCHAR
STARTCHAR umacron
ENCODING 363
SWIDTH 571 0
DWIDTH 8 0
BBX 8 14 0 -2
BITMAP
00
00
00
3C
00
42
42
42
42
42
42
3E
00
00
ENDCHAR
STARTCHAR Ubreve
ENCODING 364
SWIDTH 571 0
DWIDTH 8 0
BBX 8 14 0 -2
BITMAP
24
18
42
42
42
42
42
42
42
42
42
3C
00
00
ENDCHAR
STARTCHAR ubreve
ENCODING 365
SWIDTH 571 0
DWIDTH 8 0
BBX 8 14 0 -2
BITMAP
00
00
24
18
00
42
42
42
42
42
42
3E
00
00
ENDCHAR
STARTCHAR Uring
ENCODING 366
SWIDTH 571 0
DWIDTH 8 0
BBX 8 14 0 -2
BITMAP
18
24
18
42
42
42
42
42
42
42
42
3C
00
00
ENDCHAR
STARTCHAR uring
ENCODING 367
SWIDTH 571 0
DWIDTH 8 0
BBX 8 14 0 -2
BITMAP
00
00
18
24
18
42
42
42
42
42
42
3E
00
00
ENDCHAR
STARTCHAR Uhungarumlaut
ENCODING 368
SWIDTH 571 0
DWIDTH 8 0
BBX 8 14 0 -2
BITMAP
12
24
00
42
42
42
42
42
42
42
42
3C
00
00
ENDCHAR
STARTCHAR uhungarumlaut
ENCODING 369
SWIDTH 571 0
DWIDTH 8 0
BBX 8 14 0 -2
BITMAP
00
00
12
24
00
42
42
42
42
42
42
3E
00
00
ENDCHAR
STARTCHAR Uogonek
ENCODING 370
SWIDTH 571 0
DWIDTH 8 0
BBX 8 14 0 -2
BITMAP
00
00
42
42
42
42
42
42
42
42
42
3C
08
06
ENDCHAR
STARTCHAR uogonek
ENCODING 371
SWIDTH 571 0
DWIDTH 8 0
BBX 8 14 0 -2
BITMAP
00
00
00
00
00
42
42
42
42
42
42
3E
04
03
ENDCHAR
STARTCHAR Wcircumflex
ENCODING 372
SWIDTH 571 0
DWIDTH 8 0
BBX 8 14 0 -2
BITMAP
30
48
00
82
82
82
82
82
92
AA
C6
82
00
00
ENDCHAR
STARTCHAR wcircumflex
ENCODING 373
SWIDTH 571 0
DWIDTH 8 0
BBX 8 14 0 -2
BITMAP
00
00
30
48
00
82
82
92
92
92
92
7C
00
00
ENDCHAR
STARTCHAR Ydieresis
ENCODING 376
SWIDTH 571 0
DWIDTH 8 0
BBX 8 14 0 -2
BITMAP
44
44
00
82
82
44
44
28
10
10
10
10
00
00
ENDCHAR
STARTCHAR Zacute
ENCODING 377
SWIDTH 571 0
DWIDTH 8 0
BBX 8 14 0 -2
BITMAP
08
10
00
7E
02
04
08
10
20
40
40
7E
00
00
ENDCHAR
STARTCHAR zacute
ENCODING 378
SWIDTH 571 0
DWIDTH 8 0
BBX 8 14 0 -2
BITMAP
00
00
08
10
00
7E
04
08
10
20
40
7E
00
00
ENDCHAR
STARTCHAR Zdotaccent
ENCODING 379
SWIDTH 571 0
DWIDTH 8 0
BBX 8 14 0 -2
BITMAP
10
10
00
7E
02
04
08
10
20
40
40
7E
00
00
ENDCHAR
STARTCHAR zdotaccent
ENCODING 380
SWIDTH 571 0
DWIDTH 8 0
BBX 8 14 0 -2
BITMAP
00
00
10
10
00
7E
04
08
10
20
40
7E
00
00
ENDCHAR
STARTCHAR Zcaron
ENCODING 381
SWIDTH 571 0
DWIDTH 8 0
BBX 8 14 0 -2
BITMAP
24
18
00
7E
02
04
08
10
20
40
40
7E
00
00
ENDCHAR
STARTCHAR zcaron
ENCODING 382
SWIDTH 571 0
DWIDTH 8 0
BBX 8 14 0 -2
BITMAP
00
00
24
18
00
7E
04
08
10
20
40
7E
00
00
ENDCHAR
STARTCHAR Schwa
ENCODING 399
SWIDTH 571 0
DWIDTH 8 0
BBX 8 14 0 -2
BITMAP
00
00
3C
42
02
02
7E
42
42
42
42
3C
00
00
ENDCHAR
STARTCHAR florin
ENCODING 402
SWIDTH 571 0
DWIDTH 8 0
BBX 8 14 0 -2
BITMAP
00
00
0C
12
10
10
7C
10
10
10
10
10
90
60
ENDCHAR
STARTCHAR Ohorn
ENCODING 416
SWIDTH 1000 0
DWIDTH 8 0
BBX 7 10 1 0
BITMAP
7A
86
84
84
84
84
84
84
84
78
ENDCHAR
STARTCHAR ohorn
ENCODING 417
SWIDTH 1000 0
DWIDTH 8 0
BBX 7 7 1 0
BITMAP
7A
86
84
84
84
84
78
ENDCHAR
STARTCHAR Uhorn
ENCODING 431
SWIDTH 1000 0
DWIDTH 8 0
BBX 7 11 1 0
BITMAP
02
86
84
84
84
84
84
84
84
84
78
ENDCHAR
STARTCHAR uhorn
ENCODING 432
SWIDTH 1000 0
DWIDTH 8 0
BBX 7 8 1 0
BITMAP
02
86
84
84
84
84
84
7C
ENDCHAR
STARTCHAR Ezh
ENCODING 439
SWIDTH 571 0
DWIDTH 8 0
BBX 8 14 0 -2
BITMAP
00
00
7E
02
04
08
1C
02
02
42
42
3C
00
00
ENDCHAR
STARTCHAR Scommaaccent
ENCODING 536
SWIDTH 571 0
DWIDTH 8 0
BBX 8 14 0 -2
BITMAP
00
00
3C
42
40
40
3C
02
02
42
42
3C
10
20
ENDCHAR
STARTCHAR scommaaccent
ENCODING 537
SWIDTH 571 0
DWIDTH 8 0
BBX 8 14 0 -2
BITMAP
00
00
00
00
00
3E
40
40
3C
02
02
7C
10
20
ENDCHAR
STARTCHAR Tcommaaccent
ENCODING 538
SWIDTH 571 0
DWIDTH 8 0
BBX 8 14 0 -2
BITMAP
00
00
FE
10
10
10
10
10
10
10
10
18
08
10
ENDCHAR
STARTCHAR tcommaaccent
ENCODING 539
SWIDTH 571 0
DWIDTH 8 0
BBX 8 14 0 -2
BITMAP
00
00
10
10
10
7C
10
10
10
10
10
0E
04
08
ENDCHAR
STARTCHAR uni0232
ENCODING 562
SWIDTH 571 0
DWIDTH 8 0
BBX 8 14 0 -2
BITMAP
7C
00
82
82
44
44
28
10
10
10
10
10
00
00
ENDCHAR
STARTCHAR uni0233
ENCODING 563
SWIDTH 571 0
DWIDTH 8 0
BBX 8 14 0 -2
BITMAP
00
00
00
3C
00
42
42
42
42
42
42
3E
02
3C
ENDCHAR
STARTCHAR uni0237
ENCODING 567
SWIDTH 571 0
DWIDTH 8 0
BBX 8 14 0 -2
BITMAP
00
00
00
00
00
0C
04
04
04
04
04
44
44
38
ENDCHAR
STARTCHAR schwa
ENCODING 601
SWIDTH 571 0
DWIDTH 8 0
BBX 8 14 0 -2
BITMAP
00
00
00
00
00
3C
02
02
7E
42
42
3C
00
00
ENDCHAR
STARTCHAR ezh
ENCODING 658
SWIDTH 571 0
DWIDTH 8 0
BBX 8 14 0 -2
BITMAP
00
00
00
00
00
7E
02
04
08
1C
02
02
42
3C
ENDCHAR
STARTCHAR commaturnedmod
ENCODING 699
SWIDTH 571 0
DWIDTH 8 0
BBX 8 14 0 -2
BITMAP
08
10
10
00
00
00
00
00
00
00
00
00
00
00
ENDCHAR
STARTCHAR circumflex
ENCODING 710
SWIDTH 571 0
DWIDTH 8 0
BBX 8 14 0 -2
BITMAP
18
24
00
00
00
00
00
00
00
00
00
00
00
00
ENDCHAR
STARTCHAR caron
ENCODING 711
SWIDTH 571 0
DWIDTH 8 0
BBX 8 14 0 -2
BITMAP
24
18
00
00
00
00
00
00
00
00
00
00
00
00
ENDCHAR
STARTCHAR breve
ENCODING 728
SWIDTH 571 0
DWIDTH 8 0
BBX 8 14 0 -2
BITMAP
24
18
00
00
00
00
00
00
00
00
00
00
00
00
ENDCHAR
STARTCHAR dotaccent
ENCODING 729
SWIDTH 571 0
DWIDTH 8 0
BBX 8 14 0 -2
BITMAP
10
10
00
00
00
00
00
00
00
00
00
00
00
00
ENDCHAR
STARTCHAR ogonek
ENCODING 731
SWIDTH 571 0
DWIDTH 8 0
BBX 8 14 0 -2
BITMAP
00
00
00
00
00
00
00
00
00
00
00
02
04
03
ENDCHAR
STARTCHAR tilde
ENCODING 732
SWIDTH 571 0
DWIDTH 8 0
BBX 8 14 0 -2
BITMAP
32
4C
00
00
00
00
00
00
00
00
00
00
00
00
ENDCHAR
STARTCHAR hungarumlaut
ENCODING 733
SWIDTH 571 0
DWIDTH 8 0
BBX 8 14 0 -2
BITMAP
12
24
00
00
00
00
00
00
00
00
00
00
00
00
ENDCHAR
STARTCHAR gravecmb
ENCODING 768
SWIDTH 571 0
DWIDTH 8 0
BBX 8 14 0 -2
BITMAP
10
08
00
00
00
00
00
00
00
00
00
00
00
00
ENDCHAR
STARTCHAR acutecmb
ENCODING 769
SWIDTH 571 0
DWIDTH 8 0
BBX 8 14 0 -2
BITMAP
08
10
00
00
00
00
00
00
00
00
00
00
00
00
ENDCHAR
STARTCHAR Gamma
ENCODING 915
SWIDTH 571 0
DWIDTH 8 0
BBX 8 14 0 -2
BITMAP
00
00
7E
42
42
40
40
40
40
40
40
40
00
00
ENDCHAR
STARTCHAR Deltagreek
ENCODING 916
SWIDTH 571 0
DWIDTH 8 0
BBX 8 14 0 -2
BITMAP
00
00
10
10
28
28
44
44
82
82
82
FE
00
00
ENDCHAR
STARTCHAR Theta
ENCODING 920
SWIDTH 571 0
DWIDTH 8 0
BBX 8 14 0 -2
BITMAP
00
00
18
24
42
42
7E
42
42
42
24
18
00
00
ENDCHAR
STARTCHAR Sigma
ENCODING 931
SWIDTH 571 0
DWIDTH 8 0
BBX 8 14 0 -2
BITMAP
00
00
7E
40
20
10
08
08
10
20
40
7E
00
00
ENDCHAR
STARTCHAR Phi
ENCODING 934
SWIDTH 571 0
DWIDTH 8 0
BBX 8 14 0 -2
BITMAP
00
00
7C
10
7C
92
92
92
92
7C
10
7C
00
00
ENDCHAR
STARTCHAR Omegagreek
ENCODING 937
SWIDTH 571 0
DWIDTH 8 0
BBX 8 14 0 -2
BITMAP
00
00
3C
42
42
42
42
42
24
24
24
66
00
00
ENDCHAR
STARTCHAR alpha
ENCODING 945
SWIDTH 571 0
DWIDTH 8 0
BBX 8 14 0 -2
BITMAP
00
00
00
00
00
3A
46
44
44
44
46
3A
00
00
ENDCHAR
STARTCHAR beta
ENCODING 946
SWIDTH 571 0
DWIDTH 8 0
BBX 8 14 0 -2
BITMAP
00
00
00
38
44
44
48
7C
42
42
42
7C
40
40
ENDCHAR
STARTCHAR delta
ENCODING 948
SWIDTH 571 0
DWIDTH 8 0
BBX 8 14 0 -2
BITMAP
00
00
3E
10
08
3C
42
42
42
42
42
3C
00
00
ENDCHAR
STARTCHAR mugreek
ENCODING 956
SWIDTH 571 0
DWIDTH 8 0
BBX 8 14 0 -2
BITMAP
00
00
00
00
00
42
42
42
42
42
46
7A
40
40
ENDCHAR
STARTCHAR pi
ENCODING 960
SWIDTH 571 0
DWIDTH 8 0
BBX 8 14 0 -2
BITMAP
00
00
00
00
00
FE
44
44
44
44
44
44
00
00
ENDCHAR
STARTCHAR sigma
ENCODING 963
SWIDTH 571 0
DWIDTH 8 0
BBX 8 14 0 -2
BITMAP
00
00
00
00
00
3E
44
44
44
44
44
38
00
00
ENDCHAR
STARTCHAR tau
ENCODING 964
SWIDTH 571 0
DWIDTH 8 0
BBX 8 14 0 -2
BITMAP
00
00
00
00
02
64
98
10
10
10
10
10
00
00
ENDCHAR
STARTCHAR uni0400
ENCODING 1024
SWIDTH 571 0
DWIDTH 8 0
BBX 8 14 0 -2
BITMAP
10
08
00
7E
40
40
40
78
40
40
40
7E
00
00
ENDCHAR
STARTCHAR Iocyrillic
ENCODING 1025
SWIDTH 571 0
DWIDTH 8 0
BBX 8 14 0 -2
BITMAP
24
24
00
7E
40
40
40
78
40
40
40
7E
00
00
ENDCHAR
STARTCHAR Djecyrillic
ENCODING 1026
SWIDTH 571 0
DWIDTH 8 0
BBX 8 14 0 -2
BITMAP
00
00
F8
20
20
3C
22
22
22
22
22
22
02
04
ENDCHAR
STARTCHAR Gjecyrillic
ENCODING 1027
SWIDTH 571 0
DWIDTH 8 0
BBX 8 14 0 -2
BITMAP
08
10
00
7E
40
40
40
40
40
40
40
40
00
00
ENDCHAR
STARTCHAR Ecyrillic
ENCODING 1028
SWIDTH 571 0
DWIDTH 8 0
BBX 8 14 0 -2
BITMAP
00
00
3C
42
40
40
78
40
40
40
42
3C
00
00
ENDCHAR
STARTCHAR Dzecyrillic
ENCODING 1029
SWIDTH 571 0
DWIDTH 8 0
BBX 8 14 0 -2
BITMAP
00
00
3C
42
40
40
3C
02
02
42
42
3C
00
00
ENDCHAR
STARTCHAR Icyrillic
ENCODING 1030
SWIDTH 571 0
DWIDTH 8 0
BBX 8 14 0 -2
BITMAP
00
00
38
10
10
10
10
10
10
10
10
38
00
00
ENDCHAR
STARTCHAR Yicyrillic
ENCODING 1031
SWIDTH 571 0
DWIDTH 8 0
BBX 8 14 0 -2
BITMAP
44
44
00
38
10
10
10
10
10
10
10
38
00
00
ENDCHAR
STARTCHAR Jecyrillic
ENCODING 1032
SWIDTH 571 0
DWIDTH 8 0
BBX 8 14 0 -2
BITMAP
00
00
0E
04
04
04
04
04
04
44
44
38
00
00
ENDCHAR
STARTCHAR Ljecyrillic
ENCODING 1033
SWIDTH 571 0
DWIDTH 8 0
BBX 8 14 0 -2
BITMAP
00
00
30
50
90
9C
92
92
92
92
92
9C
00
00
ENDCHAR
STARTCHAR Njecyrillic
ENCODING 1034
SWIDTH 571 0
DWIDTH 8 0
BBX 8 14 0 -2
BITMAP
00
00
90
90
90
9C
F2
92
92
92
92
9C
00
00
ENDCHAR
STARTCHAR Tshecyrillic
ENCODING 1035
SWIDTH 571 0
DWIDTH 8 0
BBX 8 14 0 -2
BITMAP
00
00
F8
20
20
3C
22
22
22
22
22
22
00
00
ENDCHAR
STARTCHAR Kjecyrillic
ENCODING 1036
SWIDTH 571 0
DWIDTH 8 0
BBX 8 14 0 -2
BITMAP
08
10
42
44
48
50
60
60
50
48
44
42
00
00
ENDCHAR
STARTCHAR uni040D
ENCODING 1037
SWIDTH 571 0
DWIDTH 8 0
BBX 8 14 0 -2
BITMAP
10
08
42
42
42
46
4A
52
62
42
42
42
00
00
ENDCHAR
STARTCHAR Ushortcyrillic
ENCODING 1038
SWIDTH 571 0
DWIDTH 8 0
BBX 8 14 0 -2
BITMAP
24
18
42
42
42
42
42
3E
02
02
02
3C
00
00
ENDCHAR
STARTCHAR Dzhecyrillic
ENCODING 1039
SWIDTH 571 0
DWIDTH 8 0
BBX 8 14 0 -2
BITMAP
00
00
42
42
42
42
42
42
42
42
42
7E
18
18
ENDCHAR
STARTCHAR Acyrillic
ENCODING 1040
SWIDTH 571 0
DWIDTH 8 0
BBX 8 14 0 -2
BITMAP
00
00
3C
42
42
42
42
7E
42
42
42
42
00
00
ENDCHAR
STARTCHAR Becyrillic
ENCODING 1041
SWIDTH 571 0
DWIDTH 8 0
BBX 8 14 0 -2
BITMAP
00
00
7C
40
40
7C
42
42
42
42
42
7C
00
00
ENDCHAR
STARTCHAR Vecyrillic
ENCODING 1042
SWIDTH 571 0
DWIDTH 8 0
BBX 8 14 0 -2
BITMAP
00
00
7C
42
42
42
7C
42
42
42
42
7C
00
00
ENDCHAR
STARTCHAR Gecyrillic
ENCODING 1043
SWIDTH 571 0
DWIDTH 8 0
BBX 8 14 0 -2
BITMAP
00
00
7E
40
40
40
40
40
40
40
40
40
00
00
ENDCHAR
STARTCHAR Decyrillic
ENCODING 1044
SWIDTH 571 0
DWIDTH 8 0
BBX 8 14 0 -2
BITMAP
00
00
3C
44
44
44
44
44
44
44
44
FE
82
00
ENDCHAR
STARTCHAR Iecyrillic
ENCODING 1045
SWIDTH 571 0
DWIDTH 8 0
BBX 8 14 0 -2
BITMAP
00
00
7E
40
40
40
78
40
40
40
40
7E
00
00
ENDCHAR
STARTCHAR Zhecyrillic
ENCODING 1046
SWIDTH 571 0
DWIDTH 8 0
BBX 8 14 0 -2
BITMAP
00
00
92
92
92
54
38
54
92
92
92
92
00
00
ENDCHAR
STARTCHAR Zecyrillic
ENCODING 1047
SWIDTH 571 0
DWIDTH 8 0
BBX 8 14 0 -2
BITMAP
00
00
3C
42
42
02
1C
02
02
42
42
3C
00
00
ENDCHAR
STARTCHAR Iicyrillic
ENCODING 1048
SWIDTH 571 0
DWIDTH 8 0
BBX 8 14 0 -2
BITMAP
00
00
42
42
42
46
4A
52
62
42
42
42
00
00
ENDCHAR
STARTCHAR afii10027
ENCODING 1049
SWIDTH 571 0
DWIDTH 8 0
BBX 8 14 0 -2
BITMAP
24
18
42
42
42
46
4A
52
62
42
42
42
00
00
ENDCHAR
STARTCHAR Kacyrillic
ENCODING 1050
SWIDTH 571 0
DWIDTH 8 0
BBX 8 14 0 -2
BITMAP
00
00
42
44
48
50
60
60
50
48
44
42
00
00
ENDCHAR
STARTCHAR Elcyrillic
ENCODING 1051
SWIDTH 571 0
DWIDTH 8 0
BBX 8 14 0 -2
BITMAP
00
00
0E
12
22
22
22
22
22
22
22
42
00
00
ENDCHAR
STARTCHAR Emcyrillic
ENCODING 1052
SWIDTH 571 0
DWIDTH 8 0
BBX 8 14 0 -2
BITMAP
00
00
82
C6
AA
92
82
82
82
82
82
82
00
00
ENDCHAR
STARTCHAR Encyrillic
ENCODING 1053
SWIDTH 571 0
DWIDTH 8 0
BBX 8 14 0 -2
BITMAP
00
00
42
42
42
42
7E
42
42
42
42
42
00
00
ENDCHAR
STARTCHAR Ocyrillic
ENCODING 1054
SWIDTH 571 0
DWIDTH 8 0
BBX 8 14 0 -2
BITMAP
00
00
3C
42
42
42
42
42
42
42
42
3C
00
00
ENDCHAR
STARTCHAR Pecyrillic
ENCODING 1055
SWIDTH 571 0
DWIDTH 8 0
BBX 8 14 0 -2
BITMAP
00
00
7E
42
42
42
42
42
42
42
42
42
00
00
ENDCHAR
STARTCHAR Ercyrillic
ENCODING 1056
SWIDTH 571 0
DWIDTH 8 0
BBX 8 14 0 -2
BITMAP
00
00
7C
42
42
42
42
7C
40
40
40
40
00
00
ENDCHAR
STARTCHAR Escyrillic
ENCODING 1057
SWIDTH 571 0
DWIDTH 8 0
BBX 8 14 0 -2
BITMAP
00
00
3C
42
42
40
40
40
40
42
42
3C
00
00
ENDCHAR
STARTCHAR Tecyrillic
ENCODING 1058
SWIDTH 571 0
DWIDTH 8 0
BBX 8 14 0 -2
BITMAP
00
00
FE
10
10
10
10
10
10
10
10
10
00
00
ENDCHAR
STARTCHAR Ucyrillic
ENCODING 1059
SWIDTH 571 0
DWIDTH 8 0
BBX 8 14 0 -2
BITMAP
00
00
42
42
42
42
42
3E
02
02
02
3C
00
00
ENDCHAR
STARTCHAR Efcyrillic
ENCODING 1060
SWIDTH 571 0
DWIDTH 8 0
BBX 8 14 0 -2
BITMAP
00
10
7C
92
92
92
92
92
92
92
92
7C
10
00
ENDCHAR
STARTCHAR Khacyrillic
ENCODING 1061
SWIDTH 571 0
DWIDTH 8 0
BBX 8 14 0 -2
BITMAP
00
00
42
42
24
24
18
18
24
24
42
42
00
00
ENDCHAR
STARTCHAR Tsecyrillic
ENCODING 1062
SWIDTH 571 0
DWIDTH 8 0
BBX 8 14 0 -2
BITMAP
00
00
42
42
42
42
42
42
42
42
42
3F
01
01
ENDCHAR
STARTCHAR Checyrillic
ENCODING 1063
SWIDTH 571 0
DWIDTH 8 0
BBX 8 14 0 -2
BITMAP
00
00
42
42
42
42
42
3E
02
02
02
02
00
00
ENDCHAR
STARTCHAR Shacyrillic
ENCODING 1064
SWIDTH 571 0
DWIDTH 8 0
BBX 8 14 0 -2
BITMAP
00
00
92
92
92
92
92
92
92
92
92
7E
00
00
ENDCHAR
STARTCHAR Shchacyrillic
ENCODING 1065
SWIDTH 571 0
DWIDTH 8 0
BBX 8 14 0 -2
BITMAP
00
00
92
92
92
92
92
92
92
92
92
7F
01
01
ENDCHAR
STARTCHAR afii10044
ENCODING 1066
SWIDTH 571 0
DWIDTH 8 0
BBX 8 14 0 -2
BITMAP
00
00
C0
40
40
7C
42
42
42
42
42
7C
00
00
ENDCHAR
STARTCHAR Yericyrillic
ENCODING 1067
SWIDTH 571 0
DWIDTH 8 0
BBX 8 14 0 -2
BITMAP
00
00
82
82
82
F2
8A
8A
8A
8A
8A
F2
00
00
ENDCHAR
STARTCHAR afii10046
ENCODING 1068
SWIDTH 571 0
DWIDTH 8 0
BBX 8 14 0 -2
BITMAP
00
00
40
40
40
7C
42
42
42
42
42
7C
00
00
ENDCHAR
STARTCHAR afii10047
ENCODING 1069
SWIDTH 571 0
DWIDTH 8 0
BBX 8 14 0 -2
BITMAP
00
00
3C
42
02
02
1E
02
02
02
42
3C
00
00
ENDCHAR
STARTCHAR IUcyrillic
ENCODING 1070
SWIDTH 571 0
DWIDTH 8 0
BBX 8 14 0 -2
BITMAP
00
00
8C
92
92
92
92
F2
92
92
92
8C
00
00
ENDCHAR
STARTCHAR IAcyrillic
ENCODING 1071
SWIDTH 571 0
DWIDTH 8 0
BBX 8 14 0 -2
BITMAP
00
00
3E
42
42
42
42
3E
0A
12
22
42
00
00
ENDCHAR
STARTCHAR acyrillic
ENCODING 1072
SWIDTH 571 0
DWIDTH 8 0
BBX 8 14 0 -2
BITMAP
00
00
00
00
00
3C
02
3E
42
42
42
3E
00
00
ENDCHAR
STARTCHAR becyrillic
ENCODING 1073
SWIDTH 571 0
DWIDTH 8 0
BBX 8 14 0 -2
BITMAP
00
00
3C
40
40
7C
42
42
42
42
42
7C
00
00
ENDCHAR
STARTCHAR vecyrillic
ENCODING 1074
SWIDTH 571 0
DWIDTH 8 0
BBX 8 14 0 -2
BITMAP
00
00
38
44
44
48
7C
42
42
42
42
7C
00
00
ENDCHAR
STARTCHAR gecyrillic
ENCODING 1075
SWIDTH 571 0
DWIDTH 8 0
BBX 8 14 0 -2
BITMAP
00
00
00
00
00
3C
02
02
3C
40
40
3C
00
00
ENDCHAR
STARTCHAR decyrillic
ENCODING 1076
SWIDTH 571 0
DWIDTH 8 0
BBX 8 14 0 -2
BITMAP
00
00
00
00
00
3E
42
42
42
42
42
3E
02
3C
ENDCHAR
STARTCHAR iecyrillic
ENCODING 1077
SWIDTH 571 0
DWIDTH 8 0
BBX 8 14 0 -2
BITMAP
00
00
00
00
00
3C
42
42
7E
40
40
3C
00
00
ENDCHAR
STARTCHAR zhecyrillic
ENCODING 1078
SWIDTH 571 0
DWIDTH 8 0
BBX 8 14 0 -2
BITMAP
00
00
00
00
00
92
92
54
38
54
92
92
00
00
ENDCHAR
STARTCHAR zecyrillic
ENCODING 1079
SWIDTH 571 0
DWIDTH 8 0
BBX 8 14 0 -2
BITMAP
00
00
00
00
00
3C
42
02
1C
02
42
3C
00
00
ENDCHAR
STARTCHAR iicyrillic
ENCODING 1080
SWIDTH 571 0
DWIDTH 8 0
BBX 8 14 0 -2
BITMAP
00
00
00
00
00
42
42
42
42
42
42
3E
00
00
ENDCHAR
STARTCHAR afii10075
ENCODING 1081
SWIDTH 571 0
DWIDTH 8 0
BBX 8 14 0 -2
BITMAP
00
00
24
18
00
42
42
42
42
42
42
3E
00
00
ENDCHAR
STARTCHAR kacyrillic
ENCODING 1082
SWIDTH 571 0
DWIDTH 8 0
BBX 8 14 0 -2
BITMAP
00
00
00
00
00
42
44
48
70
48
44
42
00
00
ENDCHAR
STARTCHAR elcyrillic
ENCODING 1083
SWIDTH 571 0
DWIDTH 8 0
BBX 8 14 0 -2
BITMAP
00
00
00
00
00
1E
22
22
22
22
22
42
00
00
ENDCHAR
STARTCHAR emcyrillic
ENCODING 1084
SWIDTH 571 0
DWIDTH 8 0
BBX 8 14 0 -2
BITMAP
00
00
00
00
00
82
C6
AA
92
82
82
82
00
00
ENDCHAR
STARTCHAR encyrillic
ENCODING 1085
SWIDTH 571 0
DWIDTH 8 0
BBX 8 14 0 -2
BITMAP
00
00
00
00
00
42
42
42
7E
42
42
42
00
00
ENDCHAR
STARTCHAR ocyrillic
ENCODING 1086
SWIDTH 571 0
DWIDTH 8 0
BBX 8 14 0 -2
BITMAP
00
00
00
00
00
3C
42
42
42
42
42
3C
00
00
ENDCHAR
STARTCHAR pecyrillic
ENCODING 1087
SWIDTH 571 0
DWIDTH 8 0
BBX 8 14 0 -2
BITMAP
00
00
00
00
00
7E
42
42
42
42
42
42
00
00
ENDCHAR
STARTCHAR ercyrillic
ENCODING 1088
SWIDTH 571 0
DWIDTH 8 0
BBX 8 14 0 -2
BITMAP
00
00
00
00
00
7C
42
42
42
42
42
7C
40
40
ENDCHAR
STARTCHAR escyrillic
ENCODING 1089
SWIDTH 571 0
DWIDTH 8 0
BBX 8 14 0 -2
BITMAP
00
00
00
00
00
3C
42
40
40
40
42
3C
00
00
ENDCHAR
STARTCHAR tecyrillic
ENCODING 1090
SWIDTH 571 0
DWIDTH 8 0
BBX 8 14 0 -2
BITMAP
00
00
00
00
00
FE
10
10
10
10
10
10
00
00
ENDCHAR
STARTCHAR ucyrillic
ENCODING 1091
SWIDTH 571 0
DWIDTH 8 0
BBX 8 14 0 -2
BITMAP
00
00
00
00
00
42
42
42
42
42
42
3E
02
3C
ENDCHAR
STARTCHAR efcyrillic
ENCODING 1092
SWIDTH 571 0
DWIDTH 8 0
BBX 8 14 0 -2
BITMAP
00
00
00
00
10
7C
92
92
92
92
92
7C
10
00
ENDCHAR
STARTCHAR khacyrillic
ENCODING 1093
SWIDTH 571 0
DWIDTH 8 0
BBX 8 14 0 -2
BITMAP
00
00
00
00
00
42
42
24
18
24
42
42
00
00
ENDCHAR
STARTCHAR tsecyrillic
ENCODING 1094
SWIDTH 571 0
DWIDTH 8 0
BBX 8 14 0 -2
BITMAP
00
00
00
00
00
42
42
42
42
42
42
3F
01
01
ENDCHAR
STARTCHAR checyrillic
ENCODING 1095
SWIDTH 571 0
DWIDTH 8 0
BBX 8 14 0 -2
BITMAP
00
00
00
00
00
42
42
42
3E
02
02
02
00
00
ENDCHAR
STARTCHAR shacyrillic
ENCODING 1096
SWIDTH 571 0
DWIDTH 8 0
BBX 8 14 0 -2
BITMAP
00
00
00
00
00
92
92
92
92
92
92
7E
00
00
ENDCHAR
STARTCHAR shchacyrillic
ENCODING 1097
SWIDTH 571 0
DWIDTH 8 0
BBX 8 14 0 -2
BITMAP
00
00
00
00
00
92
92
92
92
92
92
7F
01
01
ENDCHAR
STARTCHAR afii10092
ENCODING 1098
SWIDTH 571 0
DWIDTH 8 0
BBX 8 14 0 -2
BITMAP
00
00
00
00
00
60
20
3C
22
22
22
3C
00
00
ENDCHAR
STARTCHAR yericyrillic
ENCODING 1099
SWIDTH 571 0
DWIDTH 8 0
BBX 8 14 0 -2
BITMAP
00
00
00
00
00
82
82
F2
8A
8A
8A
F2
00
00
ENDCHAR
STARTCHAR afii10094
ENCODING 1100
SWIDTH 571 0
DWIDTH 8 0
BBX 8 14 0 -2
BITMAP
00
00
00
00
00
40
40
78
44
44
44
78
00
00
ENDCHAR
STARTCHAR afii10095
ENCODING 1101
SWIDTH 571 0
DWIDTH 8 0
BBX 8 14 0 -2
BITMAP
00
00
00
00
00
3C
42
02
1E
02
42
3C
00
00
ENDCHAR
STARTCHAR iucyrillic
ENCODING 1102
SWIDTH 571 0
DWIDTH 8 0
BBX 8 14 0 -2
BITMAP
00
00
00
00
00
8C
92
92
F2
92
92
8C
00
00
ENDCHAR
STARTCHAR iacyrillic
ENCODING 1103
SWIDTH 571 0
DWIDTH 8 0
BBX 8 14 0 -2
BITMAP
00
00
00
00
00
3E
42
42
3E
12
22
42
00
00
ENDCHAR
STARTCHAR uni0450
ENCODING 1104
SWIDTH 571 0
DWIDTH 8 0
BBX 8 14 0 -2
BITMAP
00
00
10
08
00
3C
42
42
7E
40
40
3C
00
00
ENDCHAR
STARTCHAR iocyrillic
ENCODING 1105
SWIDTH 571 0
DWIDTH 8 0
BBX 8 14 0 -2
BITMAP
00
00
24
24
00
3C
42
42
7E
40
40
3C
00
00
ENDCHAR
STARTCHAR djecyrillic
ENCODING 1106
SWIDTH 571 0
DWIDTH 8 0
BBX 8 14 0 -2
BITMAP
00
00
40
F8
40
7C
42
42
42
42
42
42
02
04
ENDCHAR
STARTCHAR gjecyrillic
ENCODING 1107
SWIDTH 571 0
DWIDTH 8 0
BBX 8 14 0 -2
BITMAP
00
00
08
10
00
3C
02
02
3C
40
40
3C
00
00
ENDCHAR
STARTCHAR ecyrillic
ENCODING 1108
SWIDTH 571 0
DWIDTH 8 0
BBX 8 14 0 -2
BITMAP
00
00
00
00
00
3C
42
40
78
40
42
3C
00
00
ENDCHAR
STARTCHAR dzecyrillic
ENCODING 1109
SWIDTH 571 0
DWIDTH 8 0
BBX 8 14 0 -2
BITMAP
00
00
00
00
00
3E
40
40
3C
02
02
7C
00
00
ENDCHAR
STARTCHAR icyrillic
ENCODING 1110
SWIDTH 571 0
DWIDTH 8 0
BBX 8 14 0 -2
BITMAP
00
00
10
10
00
30
10
10
10
10
10
38
00
00
ENDCHAR
STARTCHAR yicyrillic
ENCODING 1111
SWIDTH 571 0
DWIDTH 8 0
BBX 8 14 0 -2
BITMAP
00
00
48
48
00
30
10
10
10
10
10
38
00
00
ENDCHAR
STARTCHAR jecyrillic
ENCODING 1112
SWIDTH 571 0
DWIDTH 8 0
BBX 8 14 0 -2
BITMAP
00
00
04
04
00
0C
04
04
04
04
04
44
44
38
ENDCHAR
STARTCHAR ljecyrillic
ENCODING 1113
SWIDTH 571 0
DWIDTH 8 0
BBX 8 14 0 -2
BITMAP
00
00
00
00
00
70
90
9C
92
92
92
9C
00
00
ENDCHAR
STARTCHAR njecyrillic
ENCODING 1114
SWIDTH 571 0
DWIDTH 8 0
BBX 8 14 0 -2
BITMAP
00
00
00
00
00
90
90
9C
F2
92
92
9C
00
00
ENDCHAR
STARTCHAR tshecyrillic
ENCODING 1115
SWIDTH 571 0
DWIDTH 8 0
BBX 8 14 0 -2
BITMAP
00
00
40
F8
40
7C
42
42
42
42
42
42
00
00
ENDCHAR
STARTCHAR kjecyrillic
ENCODING 1116
SWIDTH 571 0
DWIDTH 8 0
BBX 8 14 0 -2
BITMAP
00
00
08
10
00
42
44
48
70
48
44
42
00
00
ENDCHAR
STARTCHAR uni045D
ENCODING 1117
SWIDTH 571 0
DWIDTH 8 0
BBX 8 14 0 -2
BITMAP
00
00
10
08
00
42
42
42
42
42
42
3E
00
00
ENDCHAR
STARTCHAR ushortcyrillic
ENCODING 1118
SWIDTH 571 0
DWIDTH 8 0
BBX 8 14 0 -2
BITMAP
00
00
24
18
00
42
42
42
42
42
42
3E
02
3C
ENDCHAR
STARTCHAR dzhecyrillic
ENCODING 1119
SWIDTH 571 0
DWIDTH 8 0
BBX 8 14 0 -2
BITMAP
00
00
00
00
00
42
42
42
42
42
42
7E
18
18
ENDCHAR
STARTCHAR afii10050
ENCODING 1168
SWIDTH 571 0
DWIDTH 8 0
BBX 8 14 0 -2
BITMAP
02
02
7E
40
40
40
40
40
40
40
40
40
00
00
ENDCHAR
STARTCHAR afii10098
ENCODING 1169
SWIDTH 571 0
DWIDTH 8 0
BBX 8 14 0 -2
BITMAP
00
00
00
20
20
3C
02
02
3C
40
40
3C
00
00
ENDCHAR
STARTCHAR uni0492
ENCODING 1170
SWIDTH 571 0
DWIDTH 8 0
BBX 8 14 0 -2
BITMAP
00
00
7E
40
40
40
40
F8
40
40
40
40
00
00
ENDCHAR
STARTCHAR uni0493
ENCODING 1171
SWIDTH 571 0
DWIDTH 8 0
BBX 8 14 0 -2
BITMAP
00
00
00
00
00
7E
40
40
F8
40
40
40
00
00
ENDCHAR
STARTCHAR uni0494
ENCODING 1172
SWIDTH 571 0
DWIDTH 8 0
BBX 8 14 0 -2
BITMAP
00
00
7E
40
40
40
40
7C
42
42
42
42
02
04
ENDCHAR
STARTCHAR uni0495
ENCODING 1173
SWIDTH 571 0
DWIDTH 8 0
BBX 8 14 0 -2
BITMAP
00
00
00
00
00
7E
40
40
78
44
44
44
04
08
ENDCHAR
STARTCHAR uni0496
ENCODING 1174
SWIDTH 571 0
DWIDTH 8 0
BBX 8 14 0 -2
BITMAP
00
00
92
92
92
54
38
54
92
92
92
93
01
01
ENDCHAR
STARTCHAR uni0497
ENCODING 1175
SWIDTH 571 0
DWIDTH 8 0
BBX 8 14 0 -2
BITMAP
00
00
00
00
00
92
92
54
38
54
92
93
01
01
ENDCHAR
STARTCHAR uni0498
ENCODING 1176
SWIDTH 571 0
DWIDTH 8 0
BBX 8 14 0 -2
BITMAP
00
00
3C
42
42
02
1C
02
02
42
42
3C
10
10
ENDCHAR
STARTCHAR uni0499
ENCODING 1177
SWIDTH 571 0
DWIDTH 8 0
BBX 8 14 0 -2
BITMAP
00
00
00
00
00
3C
42
02
1C
02
42
3C
10
10
ENDCHAR
STARTCHAR uni049A
ENCODING 1178
SWIDTH 571 0
DWIDTH 8 0
BBX 8 14 0 -2
BITMAP
00
00
42
44
48
50
60
60
50
48
44
43
01
01
ENDCHAR
STARTCHAR uni049B
ENCODING 1179
SWIDTH 571 0
DWIDTH 8 0
BBX 8 14 0 -2
BITMAP
00
00
00
00
00
42
44
48
70
48
44
43
01
01
ENDCHAR
STARTCHAR uni049C
ENCODING 1180
SWIDTH 571 0
DWIDTH 8 0
BBX 8 14 0 -2
BITMAP
00
00
42
42
54
58
70
70
58
54
42
42
00
00
ENDCHAR
STARTCHAR uni049D
ENCODING 1181
SWIDTH 571 0
DWIDTH 8 0
BBX 8 14 0 -2
BITMAP
00
00
00
00
00
42
54
58
70
58
54
42
00
00
ENDCHAR
STARTCHAR uni04A0
ENCODING 1184
SWIDTH 571 0
DWIDTH 8 0
BBX 8 14 0 -2
BITMAP
00
00
C2
44
48
50
60
60
50
48
44
42
00
00
ENDCHAR
STARTCHAR uni04A1
ENCODING 1185
SWIDTH 571 0
DWIDTH 8 0
BBX 8 14 0 -2
BITMAP
00
00
00
00
00
C2
44
48
70
48
44
42
00
00
ENDCHAR
STARTCHAR uni04A2
ENCODING 1186
SWIDTH 571 0
DWIDTH 8 0
BBX 8 14 0 -2
BITMAP
00
00
42
42
42
42
7E
42
42
42
42
43
01
01
ENDCHAR
STARTCHAR uni04A3
ENCODING 1187
SWIDTH 571 0
DWIDTH 8 0
BBX 8 14 0 -2
BITMAP
00
00
00
00
00
42
42
42
7E
42
42
43
01
01
ENDCHAR
STARTCHAR Enghecyrillic
ENCODING 1188
SWIDTH 571 0
DWIDTH 8 0
BBX 8 14 0 -2
BITMAP
00
00
8E
88
88
88
F8
88
88
88
88
88
00
00
ENDCHAR
STARTCHAR enghecyrillic
ENCODING 1189
SWIDTH 571 0
DWIDTH 8 0
BBX 8 14 0 -2
BITMAP
00
00
00
00
00
8E
88
88
F8
88
88
88
00
00
ENDCHAR
STARTCHAR uni04AA
ENCODING 1194
SWIDTH 571 0
DWIDTH 8 0
BBX 8 14 0 -2
BITMAP
00
00
3C
42
42
40
40
40
40
42
42
3C
10
10
ENDCHAR
STARTCHAR uni04AB
ENCODING 1195
SWIDTH 571 0
DWIDTH 8 0
BBX 8 14 0 -2
BITMAP
00
00
00
00
00
3C
42
40
40
40
42
3C
10
10
ENDCHAR
STARTCHAR uni04AE
ENCODING 1198
SWIDTH 571 0
DWIDTH 8 0
BBX 8 14 0 -2
BITMAP
00
00
82
82
44
44
28
10
10
10
10
10
00
00
ENDCHAR
STARTCHAR uni04AF
ENCODING 1199
SWIDTH 571 0
DWIDTH 8 0
BBX 8 14 0 -2
BITMAP
00
00
00
00
00
82
82
44
44
28
10
10
10
10
ENDCHAR
STARTCHAR uni04B0
ENCODING 1200
SWIDTH 571 0
DWIDTH 8 0
BBX 8 14 0 -2
BITMAP
00
00
82
82
44
44
28
10
7C
10
10
10
00
00
ENDCHAR
STARTCHAR uni04B1
ENCODING 1201
SWIDTH 571 0
DWIDTH 8 0
BBX 8 14 0 -2
BITMAP
00
00
00
00
00
82
82
44
44
28
10
7C
10
10
ENDCHAR
STARTCHAR uni04B2
ENCODING 1202
SWIDTH 571 0
DWIDTH 8 0
BBX 8 14 0 -2
BITMAP
00
00
42
42
24
24
18
18
24
24
42
43
01
01
ENDCHAR
STARTCHAR uni04B3
ENCODING 1203
SWIDTH 571 0
DWIDTH 8 0
BBX 8 14 0 -2
BITMAP
00
00
00
00
00
42
42
24
18
24
42
43
01
01
ENDCHAR
STARTCHAR uni04B6
ENCODING 1206
SWIDTH 571 0
DWIDTH 8 0
BBX 8 14 0 -2
BITMAP
00
00
42
42
42
42
42
3E
02
02
02
03
01
01
ENDCHAR
STARTCHAR uni04B7
ENCODING 1207
SWIDTH 571 0
DWIDTH 8 0
BBX 8 14 0 -2
BITMAP
00
00
00
00
00
42
42
42
3E
02
02
03
01
01
ENDCHAR
STARTCHAR uni04B8
ENCODING 1208
SWIDTH 571 0
DWIDTH 8 0
BBX 8 14 0 -2
BITMAP
00
00
42
42
42
52
52
3E
12
12
02
02
00
00
ENDCHAR
STARTCHAR uni04B9
ENCODING 1209
SWIDTH 571 0
DWIDTH 8 0
BBX 8 14 0 -2
BITMAP
00
00
00
00
00
42
42
52
3E
12
02
02
00
00
ENDCHAR
STARTCHAR Shhacyrillic
ENCODING 1210
SWIDTH 571 0
DWIDTH 8 0
BBX 8 14 0 -2
BITMAP
00
00
40
40
40
40
7C
42
42
42
42
42
00
00
ENDCHAR
STARTCHAR shhacyrillic
ENCODING 1211
SWIDTH 571 0
DWIDTH 8 0
BBX 8 14 0 -2
BITMAP
00
00
00
00
00
40
40
7C
42
42
42
42
00
00
ENDCHAR
STARTCHAR Abrevecyrillic
ENCODING 1232
SWIDTH 571 0
DWIDTH 8 0
BBX 8 14 0 -2
BITMAP
24
18
00
3C
42
42
42
7E
42
42
42
42
00
00
ENDCHAR
STARTCHAR abrevecyrillic
ENCODING 1233
SWIDTH 571 0
DWIDTH 8 0
BBX 8 14 0 -2
BITMAP
00
00
24
18
00
3C
02
3E
42
42
42
3E
00
00
ENDCHAR
STARTCHAR uni04D2
ENCODING 1234
SWIDTH 571 0
DWIDTH 8 0
BBX 8 14 0 -2
BITMAP
24
24
00
3C
42
42
42
7E
42
42
42
42
00
00
ENDCHAR
STARTCHAR uni04D3
ENCODING 1235
SWIDTH 571 0
DWIDTH 8 0
BBX 8 14 0 -2
BITMAP
00
00
24
24
00
3C
02
3E
42
42
42
3E
00
00
ENDCHAR
STARTCHAR Aiecyrillic
ENCODING 1236
SWIDTH 571 0
DWIDTH 8 0
BBX 8 14 0 -2
BITMAP
00
00
7E
90
90
90
FC
90
90
90
90
9E
00
00
ENDCHAR
STARTCHAR aiecyrillic
ENCODING 1237
SWIDTH 571 0
DWIDTH 8 0
BBX 8 14 0 -2
BITMAP
00
00
00
00
00
6C
12
72
9E
90
90
6C
00
00
ENDCHAR
STARTCHAR uni04D6
ENCODING 1238
SWIDTH 571 0
DWIDTH 8 0
BBX 8 14 0 -2
BITMAP
24
18
00
7E
40
40
40
78
40
40
40
7E
00
00
ENDCHAR
STARTCHAR uni04D7
ENCODING 1239
SWIDTH 571 0
DWIDTH 8 0
BBX 8 14 0 -2
BITMAP
00
00
24
18
00
3C
42
42
7E
40
40
3C
00
00
ENDCHAR
STARTCHAR Schwacyrillic
ENCODING 1240
SWIDTH 571 0
DWIDTH 8 0
BBX 8 14 0 -2
BITMAP
00
00
3C
42
02
02
7E
42
42
42
42
3C
00
00
ENDCHAR
STARTCHAR schwacyrillic
ENCODING 1241
SWIDTH 571 0
DWIDTH 8 0
BBX 8 14 0 -2
BITMAP
00
00
00
00
00
3C
02
02
7E
42
42
3C
00
00
ENDCHAR
STARTCHAR uni04DA
ENCODING 1242
SWIDTH 571 0
DWIDTH 8 0
BBX 8 14 0 -2
BITMAP
24
24
00
3C
42
02
02
7E
42
42
42
3C
00
00
ENDCHAR
STARTCHAR uni04DB
ENCODING 1243
SWIDTH 571 0
DWIDTH 8 0
BBX 8 14 0 -2
BITMAP
00
00
24
24
00
3C
02
02
7E
42
42
3C
00
00
ENDCHAR
STARTCHAR uni04DC
ENCODING 1244
SWIDTH 571 0
DWIDTH 8 0
BBX 8 14 0 -2
BITMAP
44
44
00
92
92
92
54
38
54
92
92
92
00
00
ENDCHAR
STARTCHAR uni04DD
ENCODING 1245
SWIDTH 571 0
DWIDTH 8 0
BBX 8 14 0 -2
BITMAP
00
00
44
44
00
92
92
54
38
54
92
92
00
00
ENDCHAR
STARTCHAR uni04DE
ENCODING 1246
SWIDTH 571 0
DWIDTH 8 0
BBX 8 14 0 -2
BITMAP
24
24
00
3C
42
42
02
1C
02
42
42
3C
00
00
ENDCHAR
STARTCHAR uni04DF
ENCODING 1247
SWIDTH 571 0
DWIDTH 8 0
BBX 8 14 0 -2
BITMAP
00
00
24
24
00
3C
42
02
1C
02
42
3C
00
00
ENDCHAR
STARTCHAR uni04E2
ENCODING 1250
SWIDTH 571 0
DWIDTH 8 0
BBX 8 14 0 -2
BITMAP
3C
00
42
42
42
46
4A
52
62
42
42
42
00
00
ENDCHAR
STARTCHAR uni04E3
ENCODING 1251
SWIDTH 571 0
DWIDTH 8 0
BBX 8 14 0 -2
BITMAP
00
00
00
3C
00
42
42
42
42
42
42
3E
00
00
ENDCHAR
STARTCHAR uni04E4
ENCODING 1252
SWIDTH 571 0
DWIDTH 8 0
BBX 8 14 0 -2
BITMAP
24
24
00
42
42
42
46
4A
52
62
42
42
00
00
ENDCHAR
STARTCHAR uni04E5
ENCODING 1253
SWIDTH 571 0
DWIDTH 8 0
BBX 8 14 0 -2
BITMAP
00
00
24
24
00
42
42
42
42
42
42
3E
00
00
ENDCHAR
STARTCHAR uni04E6
ENCODING 1254
SWIDTH 571 0
DWIDTH 8 0
BBX 8 14 0 -2
BITMAP
24
24
00
3C
42
42
42
42
42
42
42
3C
00
00
ENDCHAR
STARTCHAR uni04E7
ENCODING 1255
SWIDTH 571 0
DWIDTH 8 0
BBX 8 14 0 -2
BITMAP
00
00
24
24
00
3C
42
42
42
42
42
3C
00
00
ENDCHAR
STARTCHAR uni04E8
ENCODING 1256
SWIDTH 571 0
DWIDTH 8 0
BBX 8 14 0 -2
BITMAP
00
00
3C
42
42
42
7E
42
42
42
42
3C
00
00
ENDCHAR
STARTCHAR uni04E9
ENCODING 1257
SWIDTH 571 0
DWIDTH 8 0
BBX 8 14 0 -2
BITMAP
00
00
00
00
00
3C
42
42
7E
42
42
3C
00
00
ENDCHAR
STARTCHAR uni04EA
ENCODING 1258
SWIDTH 571 0
DWIDTH 8 0
BBX 8 14 0 -2
BITMAP
24
24
00
3C
42
42
42
7E
42
42
42
3C
00
00
ENDCHAR
STARTCHAR uni04EB
ENCODING 1259
SWIDTH 571 0
DWIDTH 8 0
BBX 8 14 0 -2
BITMAP
00
00
24
24
00
3C
42
42
7E
42
42
3C
00
00
ENDCHAR
STARTCHAR uni04EC
ENCODING 1260
SWIDTH 571 0
DWIDTH 8 0
BBX 8 14 0 -2
BITMAP
24
24
00
3C
42
02
02
1E
02
02
42
3C
00
00
ENDCHAR
STARTCHAR uni04ED
ENCODING 1261
SWIDTH 571 0
DWIDTH 8 0
BBX 8 14 0 -2
BITMAP
00
00
24
24
00
3C
42
02
1E
02
42
3C
00
00
ENDCHAR
STARTCHAR uni04EE
ENCODING 1262
SWIDTH 571 0
DWIDTH 8 0
BBX 8 14 0 -2
BITMAP
3C
00
42
42
42
42
42
3E
02
02
02
3C
00
00
ENDCHAR
STARTCHAR uni04EF
ENCODING 1263
SWIDTH 571 0
DWIDTH 8 0
BBX 8 14 0 -2
BITMAP
00
00
00
3C
00
42
42
42
42
42
42
3E
02
3C
ENDCHAR
STARTCHAR uni04F0
ENCODING 1264
SWIDTH 571 0
DWIDTH 8 0
BBX 8 14 0 -2
BITMAP
24
24
00
42
42
42
42
3E
02
02
02
3C
00
00
ENDCHAR
STARTCHAR uni04F1
ENCODING 1265
SWIDTH 571 0
DWIDTH 8 0
BBX 8 14 0 -2
BITMAP
00
00
24
24
00
42
42
42
42
42
42
3E
02
3C
ENDCHAR
STARTCHAR uni04F2
ENCODING 1266
SWIDTH 571 0
DWIDTH 8 0
BBX 8 14 0 -2
BITMAP
12
24
00
42
42
42
42
3E
02
02
02
3C
00
00
ENDCHAR
STARTCHAR uni04F3
ENCODING 1267
SWIDTH 571 0
DWIDTH 8 0
BBX 8 14 0 -2
BITMAP
00
00
12
24
00
42
42
42
42
42
42
3E
02
3C
ENDCHAR
STARTCHAR uni04F4
ENCODING 1268
SWIDTH 571 0
DWIDTH 8 0
BBX 8 14 0 -2
BITMAP
24
24
00
42
42
42
42
3E
02
02
02
02
00
00
ENDCHAR
STARTCHAR uni04F5
ENCODING 1269
SWIDTH 571 0
DWIDTH 8 0
BBX 8 14 0 -2
BITMAP
00
00
24
24
00
42
42
42
3E
02
02
02
00
00
ENDCHAR
STARTCHAR uni04F8
ENCODING 1272
SWIDTH 571 0
DWIDTH 8 0
BBX 8 14 0 -2
BITMAP
48
48
00
82
82
82
F2
8A
8A
8A
8A
F2
00
00
ENDCHAR
STARTCHAR uni04F9
ENCODING 1273
SWIDTH 571 0
DWIDTH 8 0
BBX 8 14 0 -2
BITMAP
00
00
48
48
00
82
82
F2
8A
8A
8A
F2
00
00
ENDCHAR
STARTCHAR Klinebelow
ENCODING 7732
SWIDTH 571 0
DWIDTH 8 0
BBX 8 14 0 -2
BITMAP
00
00
42
44
48
50
60
60
50
48
44
42
00
3C
ENDCHAR
STARTCHAR klinebelow
ENCODING 7733
SWIDTH 571 0
DWIDTH 8 0
BBX 8 14 0 -2
BITMAP
00
00
40
40
40
42
44
48
70
48
44
42
00
3C
ENDCHAR
STARTCHAR Edotbelow
ENCODING 7864
SWIDTH 571 0
DWIDTH 8 0
BBX 8 14 0 -2
BITMAP
00
00
7E
40
40
40
78
40
40
40
40
7E
10
10
ENDCHAR
STARTCHAR edotbelow
ENCODING 7865
SWIDTH 571 0
DWIDTH 8 0
BBX 8 14 0 -2
BITMAP
00
00
00
00
00
3C
42
42
7E
40
40
3C
10
10
ENDCHAR
STARTCHAR Etilde
ENCODING 7868
SWIDTH 571 0
DWIDTH 8 0
BBX 8 14 0 -2
BITMAP
32
4C
00
7E
40
40
40
78
40
40
40
7E
00
00
ENDCHAR
STARTCHAR etilde
ENCODING 7869
SWIDTH 571 0
DWIDTH 8 0
BBX 8 14 0 -2
BITMAP
00
00
32
4C
00
3C
42
42
7E
40
40
3C
00
00
ENDCHAR
STARTCHAR Odotbelow
ENCODING 7884
SWIDTH 571 0
DWIDTH 8 0
BBX 8 14 0 -2
BITMAP
00
00
3C
42
42
42
42
42
42
42
42
3C
10
10
ENDCHAR
STARTCHAR odotbelow
ENCODING 7885
SWIDTH 571 0
DWIDTH 8 0
BBX 8 14 0 -2
BITMAP
00
00
00
00
00
3C
42
42
42
42
42
3C
10
10
ENDCHAR
STARTCHAR uni1EA0
ENCODING 7840
SWIDTH 1000 0
DWIDTH 8 0
BBX 6 12 1 -2
BITMAP
78
84
84
84
84
FC
84
84
84
84
20
20
ENDCHAR
STARTCHAR uni1EA1
ENCODING 7841
SWIDTH 1000 0
DWIDTH 8 0
BBX 6 9 1 -2
BITMAP
78
04
7C
84
84
84
7C
20
20
ENDCHAR
STARTCHAR uni1EA2
ENCODING 7842
SWIDTH 1000 0
DWIDTH 8 0
BBX 6 12 1 0
BITMAP
70
10
78
84
84
84
84
FC
84
84
84
84
ENDCHAR
STARTCHAR uni1EA3
ENCODING 7843
SWIDTH 1000 0
DWIDTH 8 0
BBX 6 10 1 0
BITMAP
70
10
00
78
04
7C
84
84
84
7C
ENDCHAR
STARTCHAR uni1EA4
ENCODING 7844
SWIDTH 1000 0
DWIDTH 8 0
BBX 6 13 1 0
BITMAP
04
38
48
00
78
84
84
84
FC
84
84
84
84
ENDCHAR
STARTCHAR uni1EA5
ENCODING 7845
SWIDTH 1000 0
DWIDTH 8 0
BBX 6 11 1 0
BITMAP
04
38
48
00
78
04
7C
84
84
84
7C
ENDCHAR
STARTCHAR uni1EA6
ENCODING 7846
SWIDTH 1000 0
DWIDTH 8 0
BBX 6 13 1 0
BITMAP
80
70
48
00
78
84
84
84
FC
84
84
84
84
ENDCHAR
STARTCHAR uni1EA7
ENCODING 7847
SWIDTH 1000 0
DWIDTH 8 0
BBX 6 11 1 0
BITMAP
80
70
48
00
78
04
7C
84
84
84
7C
ENDCHAR
STARTCHAR uni1EA8
ENCODING 7848
SWIDTH 1000 0
DWIDTH 8 0
BBX 6 13 1 0
BITMAP
0C
34
48
00
78
84
84
84
FC
84
84
84
84
ENDCHAR
STARTCHAR uni1EA9
ENCODING 7849
SWIDTH 1000 0
DWIDTH 8 0
BBX 6 11 1 0
BITMAP
0C
34
48
00
78
04
7C
84
84
84
7C
ENDCHAR
STARTCHAR uni1EAA
ENCODING 7850
SWIDTH 1000 0
DWIDTH 8 0
BBX 7 13 1 0
BITMAP
0A
34
48
00
78
84
84
84
FC
84
84
84
84
ENDCHAR
STARTCHAR uni1EAB
ENCODING 7851
SWIDTH 1000 0
DWIDTH 8 0
BBX 7 11 1 0
BITMAP
0A
34
48
00
78
04
7C
84
84
84
7C
ENDCHAR
STARTCHAR uni1EAC
ENCODING 7852
SWIDTH 1000 0
DWIDTH 8 0
BBX 6 14 1 -2
BITMAP
30
48
00
78
84
84
84
FC
84
84
84
84
20
20
ENDCHAR
STARTCHAR uni1EAD
ENCODING 7853
SWIDTH 1000 0
DWIDTH 8 0
BBX 6 12 1 -2
BITMAP
30
48
00
78
04
7C
84
84
84
7C
20
20
ENDCHAR
STARTCHAR uni1EAE
ENCODING 7854
SWIDTH 1000 0
DWIDTH 8 0
BBX 6 13 1 0
BITMAP
08
10
48
30
78
84
84
84
FC
84
84
84
84
ENDCHAR
STARTCHAR uni1EAF
ENCODING 7855
SWIDTH 1000 0
DWIDTH 8 0
BBX 6 12 1 0
BITMAP
08
10
48
30
00
78
04
7C
84
84
84
7C
ENDCHAR
STARTCHAR uni1EB0
ENCODING 7856
SWIDTH 1000 0
DWIDTH 8 0
BBX 6 13 1 0
BITMAP
40
20
48
30
78
84
84
84
FC
84
84
84
84
ENDCHAR
STARTCHAR uni1EB1
ENCODING 7857
SWIDTH 1000 0
DWIDTH 8 0
BBX 6 12 1 0
BITMAP
40
20
48
30
00
78
04
7C
84
84
84
7C
ENDCHAR
STARTCHAR uni1EB2
ENCODING 7858
SWIDTH 1000 0
DWIDTH 8 0
BBX 6 13 1 0
BITMAP
30
10
48
30
78
84
84
84
FC
84
84
84
84
ENDCHAR
STARTCHAR uni1EB3
ENCODING 7859
SWIDTH 1000 0
DWIDTH 8 0
BBX 6 12 1 0
BITMAP
30
10
48
30
00
78
04
7C
84
84
84
7C
ENDCHAR
STARTCHAR uni1EB4
ENCODING 7860
SWIDTH 1000 0
DWIDTH 8 0
BBX 6 12 1 0
BITMAP
14
68
30
78
84
84
84
FC
84
84
84
84
ENDCHAR
STARTCHAR uni1EB5
ENCODING 7861
SWIDTH 1000 0
DWIDTH 8 0
BBX 6 11 1 0
BITMAP
14
68
30
00
78
04
7C
84
84
84
7C
ENDCHAR
STARTCHAR uni1EB6
ENCODING 7862
SWIDTH 1000 0
DWIDTH 8 0
BBX 6 14 1 -2
BITMAP
48
30
00
78
84
84
84
FC
84
84
84
84
20
20
ENDCHAR
STARTCHAR uni1EB7
ENCODING 7863
SWIDTH 1000 0
DWIDTH 8 0
BBX 6 12 1 -2
BITMAP
48
30
00
78
04
7C
84
84
84
7C
20
20
ENDCHAR
STARTCHAR uni1EBA
ENCODING 7866
SWIDTH 1000 0
DWIDTH 8 0
BBX 6 12 1 0
BITMAP
30
10
FC
80
80
80
F0
80
80
80
80
FC
ENDCHAR
STARTCHAR uni1EBB
ENCODING 7867
SWIDTH 1000 0
DWIDTH 8 0
BBX 6 11 1 0
BITMAP
38
08
10
00
78
84
84
FC
80
80
78
ENDCHAR
STARTCHAR uni1EBE
ENCODING 7870
SWIDTH 1000 0
DWIDTH 8 0
BBX 6 13 1 0
BITMAP
04
38
48
00
FC
80
80
80
F0
80
80
80
FC
ENDCHAR
STARTCHAR uni1EBF
ENCODING 7871
SWIDTH 1000 0
DWIDTH 8 0
BBX 6 12 1 0
BITMAP
04
08
30
48
00
78
84
84
FC
80
80
78
ENDCHAR
STARTCHAR uni1EC0
ENCODING 7872
SWIDTH 1000 0
DWIDTH 8 0
BBX 6 13 1 0
BITMAP
80
70
48
00
FC
80
80
80
F0
80
80
80
FC
ENDCHAR
STARTCHAR uni1EC1
ENCODING 7873
SWIDTH 1000 0
DWIDTH 8 0
BBX 6 12 1 0
BITMAP
10
08
30
48
00
78
84
84
FC
80
80
78
ENDCHAR
STARTCHAR uni1EC2
ENCODING 7874
SWIDTH 1000 0
DWIDTH 8 0
BBX 6 13 1 0
BITMAP
0C
34
48
00
FC
80
80
80
F0
80
80
80
FC
ENDCHAR
STARTCHAR uni1EC3
ENCODING 7875
SWIDTH 1000 0
DWIDTH 8 0
BBX 6 12 1 0
BITMAP
0C
04
38
48
00
78
84
84
FC
80
80
78
ENDCHAR
STARTCHAR uni1EC4
ENCODING 7876
SWIDTH 1000 0
DWIDTH 8 0
BBX 7 13 1 0
BITMAP
0A
34
48
00
FC
80
80
80
F0
80
80
80
FC
ENDCHAR
STARTCHAR uni1EC5
ENCODING 7877
SWIDTH 1000 0
DWIDTH 8 0
BBX 7 11 1 0
BITMAP
0A
34
48
00
78
84
84
FC
80
80
78
ENDCHAR
STARTCHAR uni1EC6
ENCODING 7878
SWIDTH 1000 0
DWIDTH 8 0
BBX 6 14 1 -2
BITMAP
30
48
00
FC
80
80
80
F0
80
80
80
FC
20
20
ENDCHAR
STARTCHAR uni1EC7
ENCODING 7879
SWIDTH 1000 0
DWIDTH 8 0
BBX 6 12 1 -2
BITMAP
30
48
00
78
84
84
FC
80
80
78
20
20
ENDCHAR
STARTCHAR uni1EC8
ENCODING 7880
SWIDTH 1000 0
DWIDTH 8 0
BBX 4 12 2 0
BITMAP
70
10
E0
40
40
40
40
40
40
40
40
E0
ENDCHAR
STARTCHAR uni1EC9
ENCODING 7881
SWIDTH 1000 0
DWIDTH 8 0
BBX 3 11 2 0
BITMAP
E0
20
40
00
C0
40
40
40
40
40
E0
ENDCHAR
STARTCHAR uni1ECA
ENCODING 7882
SWIDTH 1000 0
DWIDTH 8 0
BBX 3 12 2 -2
BITMAP
E0
40
40
40
40
40
40
40
40
E0
40
40
ENDCHAR
STARTCHAR uni1ECB
ENCODING 7883
SWIDTH 1000 0
DWIDTH 8 0
BBX 3 12 2 -2
BITMAP
40
40
00
C0
40
40
40
40
40
E0
40
40
ENDCHAR
STARTCHAR uni1ECE
ENCODING 7886
SWIDTH 1000 0
DWIDTH 8 0
BBX 6 12 1 0
BITMAP
70
10
78
84
84
84
84
84
84
84
84
78
ENDCHAR
STARTCHAR uni1ECF
ENCODING 7887
SWIDTH 1000 0
DWIDTH 8 0
BBX 6 11 1 0
BITMAP
38
08
10
00
78
84
84
84
84
84
78
ENDCHAR
STARTCHAR uni1ED0
ENCODING 7888
SWIDTH 1000 0
DWIDTH 8 0
BBX 6 13 1 0
BITMAP
04
38
48
78
84
84
84
84
84
84
84
84
78
ENDCHAR
STARTCHAR uni1ED1
ENCODING 7889
SWIDTH 1000 0
DWIDTH 8 0
BBX 6 12 1 0
BITMAP
04
08
30
48
00
78
84
84
84
84
84
78
ENDCHAR
STARTCHAR uni1ED2
ENCODING 7890
SWIDTH 1000 0
DWIDTH 8 0
BBX 6 13 1 0
BITMAP
80
70
48
78
84
84
84
84
84
84
84
84
78
ENDCHAR
STARTCHAR uni1ED3
ENCODING 7891
SWIDTH 1000 0
DWIDTH 8 0
BBX 6 12 1 0
BITMAP
10
08
30
48
00
78
84
84
84
84
84
78
ENDCHAR
STARTCHAR uni1ED4
ENCODING 7892
SWIDTH 1000 0
DWIDTH 8 0
BBX 6 13 1 0
BITMAP
0C
34
48
78
84
84
84
84
84
84
84
84
78
ENDCHAR
STARTCHAR uni1ED5
ENCODING 7893
SWIDTH 1000 0
DWIDTH 8 0
BBX 6 12 1 0
BITMAP
1C
04
38
48
00
78
84
84
84
84
84
78
ENDCHAR
STARTCHAR uni1ED6
ENCODING 7894
SWIDTH 1000 0
DWIDTH 8 0
BBX 7 13 1 0
BITMAP
0A
34
48
78
84
84
84
84
84
84
84
84
78
ENDCHAR
STARTCHAR uni1ED7
ENCODING 7895
SWIDTH 1000 0
DWIDTH 8 0
BBX 7 11 1 0
BITMAP
0A
34
48
00
78
84
84
84
84
84
78
ENDCHAR
STARTCHAR uni1ED8
ENCODING 7896
SWIDTH 1000 0
DWIDTH 8 0
BBX 6 14 1 -2
BITMAP
30
48
78
84
84
84
84
84
84
84
84
78
20
20
ENDCHAR
STARTCHAR uni1ED9
ENCODING 7897
SWIDTH 1000 0
DWIDTH 8 0
BBX 6 12 1 -2
BITMAP
30
48
00
78
84
84
84
84
84
78
20
20
ENDCHAR
STARTCHAR uni1EDA
ENCODING 7898
SWIDTH 1000 0
DWIDTH 8 0
BBX 7 13 1 0
BITMAP
08
10
00
7A
86
84
84
84
84
84
84
84
78
ENDCHAR
STARTCHAR uni1EDB
ENCODING 7899
SWIDTH 1000 0
DWIDTH 8 0
BBX 7 10 1 0
BITMAP
08
10
00
7A
86
84
84
84
84
78
ENDCHAR
STARTCHAR uni1EDC
ENCODING 7900
SWIDTH 1000 0
DWIDTH 8 0
BBX 7 13 1 0
BITMAP
20
10
00
7A
86
84
84
84
84
84
84
84
78
ENDCHAR
STARTCHAR uni1EDD
ENCODING 7901
SWIDTH 1000 0
DWIDTH 8 0
BBX 7 10 1 0
BITMAP
20
10
00
7A
86
84
84
84
84
78
ENDCHAR
STARTCHAR uni1EDE
ENCODING 7902
SWIDTH 1000 0
DWIDTH 8 0
BBX 7 12 1 0
BITMAP
30
10
7A
86
84
84
84
84
84
84
84
78
ENDCHAR
STARTCHAR uni1EDF
ENCODING 7903
SWIDTH 1000 0
DWIDTH 8 0
BBX 7 11 1 0
BITMAP
38
08
10
00
7A
86
84
84
84
84
78
ENDCHAR
STARTCHAR uni1EE0
ENCODING 7904
SWIDTH 1000 0
DWIDTH 8 0
BBX 7 12 1 0
BITMAP
14
28
7A
86
84
84
84
84
84
84
84
78
ENDCHAR
STARTCHAR uni1EE1
ENCODING 7905
SWIDTH 1000 0
DWIDTH 8 0
BBX 7 10 1 0
BITMAP
14
28
00
7A
86
84
84
84
84
78
ENDCHAR
STARTCHAR uni1EE2
ENCODING 7906
SWIDTH 1000 0
DWIDTH 8 0
BBX 7 12 1 -2
BITMAP
7A
86
84
84
84
84
84
84
84
78
20
20
ENDCHAR
STARTCHAR uni1EE3
ENCODING 7907
SWIDTH 1000 0
DWIDTH 8 0
BBX 7 9 1 -2
BITMAP
7A
86
84
84
84
84
78
20
20
ENDCHAR
STARTCHAR uni1EE4
ENCODING 7908
SWIDTH 1000 0
DWIDTH 8 0
BBX 6 12 1 -2
BITMAP
84
84
84
84
84
84
84
84
84
78
20
20
ENDCHAR
STARTCHAR uni1EE5
ENCODING 7909
SWIDTH 1000 0
DWIDTH 8 0
BBX 6 9 1 -2
BITMAP
84
84
84
84
84
84
7C
20
20
ENDCHAR
STARTCHAR uni1EE6
ENCODING 7910
SWIDTH 1000 0
DWIDTH 8 0
BBX 6 12 1 0
BITMAP
30
10
84
84
84
84
84
84
84
84
84
78
ENDCHAR
STARTCHAR uni1EE7
ENCODING 7911
SWIDTH 1000 0
DWIDTH 8 0
BBX 6 11 1 0
BITMAP
38
08
10
00
84
84
84
84
84
84
7C
ENDCHAR
STARTCHAR uni1EE8
ENCODING 7912
SWIDTH 1000 0
DWIDTH 8 0
BBX 7 12 1 0
BITMAP
08
12
86
84
84
84
84
84
84
84
84
78
ENDCHAR
STARTCHAR uni1EE9
ENCODING 7913
SWIDTH 1000 0
DWIDTH 8 0
BBX 7 10 1 0
BITMAP
08
10
02
86
84
84
84
84
84
7C
ENDCHAR
STARTCHAR uni1EEA
ENCODING 7914
SWIDTH 1000 0
DWIDTH 8 0
BBX 7 12 1 0
BITMAP
20
12
86
84
84
84
84
84
84
84
84
78
ENDCHAR
STARTCHAR uni1EEB
ENCODING 7915
SWIDTH 1000 0
DWIDTH 8 0
BBX 7 10 1 0
BITMAP
20
10
02
86
84
84
84
84
84
7C
ENDCHAR
STARTCHAR uni1EEC
ENCODING 7916
SWIDTH 1000 0
DWIDTH 8 0
BBX 7 12 1 0
BITMAP
30
12
86
84
84
84
84
84
84
84
84
78
ENDCHAR
STARTCHAR uni1EED
ENCODING 7917
SWIDTH 1000 0
DWIDTH 8 0
BBX 7 11 1 0
BITMAP
38
08
10
02
86
84
84
84
84
84
7C
ENDCHAR
STARTCHAR uni1EEE
ENCODING 7918
SWIDTH 1000 0
DWIDTH 8 0
BBX 7 12 1 0
BITMAP
14
2A
86
84
84
84
84
84
84
84
84
78
ENDCHAR
STARTCHAR uni1EEF
ENCODING 7919
SWIDTH 1000 0
DWIDTH 8 0
BBX 7 10 1 0
BITMAP
14
28
02
86
84
84
84
84
84
7C
ENDCHAR
STARTCHAR uni1EF0
ENCODING 7920
SWIDTH 1000 0
DWIDTH 8 0
BBX 7 13 1 -2
BITMAP
02
86
84
84
84
84
84
84
84
84
78
20
20
ENDCHAR
STARTCHAR uni1EF1
ENCODING 7921
SWIDTH 1000 0
DWIDTH 8 0
BBX 7 10 1 -2
BITMAP
02
86
84
84
84
84
84
7C
20
20
ENDCHAR
STARTCHAR Ygrave
ENCODING 7922
SWIDTH 1000 0
DWIDTH 8 0
BBX 7 12 0 0
BITMAP
20
10
82
82
44
44
28
10
10
10
10
10
ENDCHAR
STARTCHAR ygrave
ENCODING 7923
SWIDTH 1000 0
DWIDTH 8 0
BBX 6 12 1 -2
BITMAP
20
10
00
84
84
84
84
84
84
7C
04
78
ENDCHAR
STARTCHAR uni1EF4
ENCODING 7924
SWIDTH 1000 0
DWIDTH 8 0
BBX 7 11 0 -2
BITMAP
82
82
44
44
28
10
10
10
10
20
30
ENDCHAR
STARTCHAR uni1EF5
ENCODING 7925
SWIDTH 1000 0
DWIDTH 8 0
BBX 6 9 1 -2
BITMAP
84
84
84
84
84
84
7C
34
78
ENDCHAR
STARTCHAR uni1EF6
ENCODING 7926
SWIDTH 1000 0
DWIDTH 8 0
BBX 7 12 0 0
BITMAP
38
08
10
82
82
44
44
28
10
10
10
10
ENDCHAR
STARTCHAR uni1EF7
ENCODING 7927
SWIDTH 1000 0
DWIDTH 8 0
BBX 6 13 1 -2
BITMAP
38
08
10
00
84
84
84
84
84
84
7C
04
78
ENDCHAR
STARTCHAR Ytilde
ENCODING 7928
SWIDTH 571 0
DWIDTH 8 0
BBX 8 14 0 -2
BITMAP
64
98
00
82
82
44
44
28
10
10
10
10
00
00
ENDCHAR
STARTCHAR ytilde
ENCODING 7929
SWIDTH 571 0
DWIDTH 8 0
BBX 8 14 0 -2
BITMAP
00
00
32
4C
00
42
42
42
42
42
42
3E
02
3C
ENDCHAR
STARTCHAR uni2000
ENCODING 8192
SWIDTH 571 0
DWIDTH 8 0
BBX 8 14 0 -2
BITMAP
00
00
00
00
00
00
00
00
00
00
00
00
00
00
ENDCHAR
STARTCHAR uni2001
ENCODING 8193
SWIDTH 571 0
DWIDTH 8 0
BBX 8 14 0 -2
BITMAP
00
00
00
00
00
00
00
00
00
00
00
00
00
00
ENDCHAR
STARTCHAR enspace
ENCODING 8194
SWIDTH 571 0
DWIDTH 8 0
BBX 8 14 0 -2
BITMAP
00
00
00
00
00
00
00
00
00
00
00
00
00
00
ENDCHAR
STARTCHAR uni2003
ENCODING 8195
SWIDTH 571 0
DWIDTH 8 0
BBX 8 14 0 -2
BITMAP
00
00
00
00
00
00
00
00
00
00
00
00
00
00
ENDCHAR
STARTCHAR uni2004
ENCODING 8196
SWIDTH 571 0
DWIDTH 8 0
BBX 8 14 0 -2
BITMAP
00
00
00
00
00
00
00
00
00
00
00
00
00
00
ENDCHAR
STARTCHAR uni2005
ENCODING 8197
SWIDTH 571 0
DWIDTH 8 0
BBX 8 14 0 -2
BITMAP
00
00
00
00
00
00
00
00
00
00
00
00
00
00
ENDCHAR
STARTCHAR uni2006
ENCODING 8198
SWIDTH 571 0
DWIDTH 8 0
BBX 8 14 0 -2
BITMAP
00
00
00
00
00
00
00
00
00
00
00
00
00
00
ENDCHAR
STARTCHAR uni2007
ENCODING 8199
SWIDTH 571 0
DWIDTH 8 0
BBX 8 14 0 -2
BITMAP
00
00
00
00
00
00
00
00
00
00
00
00
00
00
ENDCHAR
STARTCHAR uni2008
ENCODING 8200
SWIDTH 571 0
DWIDTH 8 0
BBX 8 14 0 -2
BITMAP
00
00
00
00
00
00
00
00
00
00
00
00
00
00
ENDCHAR
STARTCHAR uni2009
ENCODING 8201
SWIDTH 571 0
DWIDTH 8 0
BBX 8 14 0 -2
BITMAP
00
00
00
00
00
00
00
00
00
00
00
00
00
00
ENDCHAR
STARTCHAR uni200A
ENCODING 8202
SWIDTH 571 0
DWIDTH 8 0
BBX 8 14 0 -2
BITMAP
00
00
00
00
00
00
00
00
00
00
00
00
00
00
ENDCHAR
STARTCHAR hyphentwo
ENCODING 8208
SWIDTH 571 0
DWIDTH 8 0
BBX 8 14 0 -2
BITMAP
00
00
00
00
00
00
00
3C
00
00
00
00
00
00
ENDCHAR
STARTCHAR uni2011
ENCODING 8209
SWIDTH 571 0
DWIDTH 8 0
BBX 8 14 0 -2
BITMAP
00
00
00
00
00
00
00
3C
00
00
00
00
00
00
ENDCHAR
STARTCHAR figuredash
ENCODING 8210
SWIDTH 571 0
DWIDTH 8 0
BBX 8 14 0 -2
BITMAP
00
00
00
00
00
00
00
7E
00
00
00
00
00
00
ENDCHAR
STARTCHAR endash
ENCODING 8211
SWIDTH 571 0
DWIDTH 8 0
BBX 8 14 0 -2
BITMAP
00
00
00
00
00
00
00
7E
00
00
00
00
00
00
ENDCHAR
STARTCHAR emdash
ENCODING 8212
SWIDTH 571 0
DWIDTH 8 0
BBX 8 14 0 -2
BITMAP
00
00
00
00
00
00
00
FE
00
00
00
00
00
00
ENDCHAR
STARTCHAR horizontalbar
ENCODING 8213
SWIDTH 571 0
DWIDTH 8 0
BBX 8 14 0 -2
BITMAP
00
00
00
00
00
00
00
FE
00
00
00
00
00
00
ENDCHAR
STARTCHAR dblverticalbar
ENCODING 8214
SWIDTH 571 0
DWIDTH 8 0
BBX 8 14 0 -2
BITMAP
00
00
28
28
28
28
28
28
28
28
28
28
00
00
ENDCHAR
STARTCHAR underscoredbl
ENCODING 8215
SWIDTH 571 0
DWIDTH 8 0
BBX 8 14 0 -2
BITMAP
00
00
00
00
00
00
00
00
00
00
00
7E
00
7E
ENDCHAR
STARTCHAR quoteleft
ENCODING 8216
SWIDTH 571 0
DWIDTH 8 0
BBX 8 14 0 -2
BITMAP
00
08
10
10
00
00
00
00
00
00
00
00
00
00
ENDCHAR
STARTCHAR quoteright
ENCODING 8217
SWIDTH 571 0
DWIDTH 8 0
BBX 8 14 0 -2
BITMAP
00
08
08
10
00
00
00
00
00
00
00
00
00
00
ENDCHAR
STARTCHAR quotesinglbase
ENCODING 8218
SWIDTH 571 0
DWIDTH 8 0
BBX 8 14 0 -2
BITMAP
00
00
00
00
00
00
00
00
00
00
08
08
10
00
ENDCHAR
STARTCHAR quotedblleft
ENCODING 8220
SWIDTH 571 0
DWIDTH 8 0
BBX 8 14 0 -2
BITMAP
00
12
24
24
00
00
00
00
00
00
00
00
00
00
ENDCHAR
STARTCHAR quotedblright
ENCODING 8221
SWIDTH 571 0
DWIDTH 8 0
BBX 8 14 0 -2
BITMAP
00
12
12
24
00
00
00
00
00
00
00
00
00
00
ENDCHAR
STARTCHAR quotedblbase
ENCODING 8222
SWIDTH 571 0
DWIDTH 8 0
BBX 8 14 0 -2
BITMAP
00
00
00
00
00
00
00
00
00
00
24
24
48
00
ENDCHAR
STARTCHAR dagger
ENCODING 8224
SWIDTH 571 0
DWIDTH 8 0
BBX 8 14 0 -2
BITMAP
00
00
10
10
7C
10
10
10
10
10
10
10
00
00
ENDCHAR
STARTCHAR daggerdbl
ENCODING 8225
SWIDTH 571 0
DWIDTH 8 0
BBX 8 14 0 -2
BITMAP
00
00
10
10
7C
10
10
10
10
7C
10
10
00
00
ENDCHAR
STARTCHAR bullet
ENCODING 8226
SWIDTH 571 0
DWIDTH 8 0
BBX 8 14 0 -2
BITMAP
00
00
00
00
00
18
3C
3C
18
00
00
00
00
00
ENDCHAR
STARTCHAR ellipsis
ENCODING 8230
SWIDTH 571 0
DWIDTH 8 0
BBX 8 14 0 -2
BITMAP
00
00
00
00
00
00
00
00
00
00
92
92
00
00
ENDCHAR
STARTCHAR perthousand
ENCODING 8240
SWIDTH 571 0
DWIDTH 8 0
BBX 8 14 0 -2
BITMAP
00
00
48
A8
50
10
20
20
40
54
AA
94
00
00
ENDCHAR
STARTCHAR minute
ENCODING 8242
SWIDTH 571 0
DWIDTH 8 0
BBX 8 14 0 -2
BITMAP
00
10
10
10
10
00
00
00
00
00
00
00
00
00
ENDCHAR
STARTCHAR second
ENCODING 8243
SWIDTH 571 0
DWIDTH 8 0
BBX 8 14 0 -2
BITMAP
00
24
24
24
24
00
00
00
00
00
00
00
00
00
ENDCHAR
STARTCHAR guilsinglleft
ENCODING 8249
SWIDTH 571 0
DWIDTH 8 0
BBX 8 14 0 -2
BITMAP
00
00
00
00
00
04
08
10
20
10
08
04
00
00
ENDCHAR
STARTCHAR guilsinglright
ENCODING 8250
SWIDTH 571 0
DWIDTH 8 0
BBX 8 14 0 -2
BITMAP
00
00
00
00
00
20
10
08
04
08
10
20
00
00
ENDCHAR
STARTCHAR exclamdbl
ENCODING 8252
SWIDTH 571 0
DWIDTH 8 0
BBX 8 14 0 -2
BITMAP
00
00
24
24
24
24
24
24
24
00
24
24
00
00
ENDCHAR
STARTCHAR overline
ENCODING 8254
SWIDTH 571 0
DWIDTH 8 0
BBX 8 14 0 -2
BITMAP
7E
00
00
00
00
00
00
00
00
00
00
00
00
00
ENDCHAR
STARTCHAR nsuperior
ENCODING 8319
SWIDTH 571 0
DWIDTH 8 0
BBX 8 14 0 -2
BITMAP
00
38
24
24
24
24
00
00
00
00
00
00
00
00
ENDCHAR
STARTCHAR peseta
ENCODING 8359
SWIDTH 571 0
DWIDTH 8 0
BBX 8 14 0 -2
BITMAP
00
00
F0
88
88
88
F4
84
8E
84
84
82
00
00
ENDCHAR
STARTCHAR Euro
ENCODING 8364
SWIDTH 571 0
DWIDTH 8 0
BBX 8 14 0 -2
BITMAP
00
00
00
1C
22
40
F8
40
F8
40
22
1C
00
00
ENDCHAR
STARTCHAR uni20AE
ENCODING 8366
SWIDTH 571 0
DWIDTH 8 0
BBX 8 14 0 -2
BITMAP
00
00
FE
10
10
1C
70
1C
70
10
10
10
00
00
ENDCHAR
STARTCHAR numero
ENCODING 8470
SWIDTH 571 0
DWIDTH 8 0
BBX 8 14 0 -2
BITMAP
00
00
96
96
96
D0
F0
F0
B0
96
90
96
00
00
ENDCHAR
STARTCHAR trademark
ENCODING 8482
SWIDTH 571 0
DWIDTH 8 0
BBX 8 14 0 -2
BITMAP
00
00
FB
55
55
51
00
00
00
00
00
00
00
00
ENDCHAR
STARTCHAR Omega
ENCODING 8486
SWIDTH 571 0
DWIDTH 8 0
BBX 8 14 0 -2
BITMAP
00
00
3C
42
42
42
42
42
24
24
24
66
00
00
ENDCHAR
STARTCHAR arrowleft
ENCODING 8592
SWIDTH 571 0
DWIDTH 8 0
BBX 8 14 0 -2
BITMAP
00
00
00
00
20
60
FE
60
20
00
00
00
00
00
ENDCHAR
STARTCHAR arrowup
ENCODING 8593
SWIDTH 571 0
DWIDTH 8 0
BBX 8 14 0 -2
BITMAP
00
00
10
38
7C
10
10
10
10
10
10
10
00
00
ENDCHAR
STARTCHAR arrowright
ENCODING 8594
SWIDTH 571 0
DWIDTH 8 0
BBX 8 14 0 -2
BITMAP
00
00
00
00
08
0C
FE
0C
08
00
00
00
00
00
ENDCHAR
STARTCHAR arrowdown
ENCODING 8595
SWIDTH 571 0
DWIDTH 8 0
BBX 8 14 0 -2
BITMAP
00
00
10
10
10
10
10
10
10
7C
38
10
00
00
ENDCHAR
STARTCHAR arrowboth
ENCODING 8596
SWIDTH 571 0
DWIDTH 8 0
BBX 8 14 0 -2
BITMAP
00
00
00
00
24
66
FF
66
24
00
00
00
00
00
ENDCHAR
STARTCHAR arrowupdn
ENCODING 8597
SWIDTH 571 0
DWIDTH 8 0
BBX 8 14 0 -2
BITMAP
00
00
10
38
7C
10
10
10
10
7C
38
10
00
00
ENDCHAR
STARTCHAR arrowupdnbse
ENCODING 8616
SWIDTH 571 0
DWIDTH 8 0
BBX 8 14 0 -2
BITMAP
00
00
10
38
7C
10
10
10
10
7C
38
10
7C
00
ENDCHAR
STARTCHAR carriagereturn
ENCODING 8629
SWIDTH 571 0
DWIDTH 8 0
BBX 8 14 0 -2
BITMAP
00
00
02
02
02
02
02
22
62
FE
60
20
00
00
ENDCHAR
STARTCHAR arrowdblleft
ENCODING 8656
SWIDTH 571 0
DWIDTH 8 0
BBX 8 14 0 -2
BITMAP
00
00
00
00
20
7E
E0
7E
20
00
00
00
00
00
ENDCHAR
STARTCHAR arrowdblup
ENCODING 8657
SWIDTH 571 0
DWIDTH 8 0
BBX 8 14 0 -2
BITMAP
00
00
10
38
7C
28
28
28
28
28
28
28
00
00
ENDCHAR
STARTCHAR arrowdblright
ENCODING 8658
SWIDTH 571 0
DWIDTH 8 0
BBX 8 14 0 -2
BITMAP
00
00
00
00
08
FC
0E
FC
08
00
00
00
00
00
ENDCHAR
STARTCHAR arrowdbldown
ENCODING 8659
SWIDTH 571 0
DWIDTH 8 0
BBX 8 14 0 -2
BITMAP
00
00
28
28
28
28
28
28
28
7C
38
10
00
00
ENDCHAR
STARTCHAR arrowdblboth
ENCODING 8660
SWIDTH 571 0
DWIDTH 8 0
BBX 8 14 0 -2
BITMAP
00
00
00
00
24
7E
E7
7E
24
00
00
00
00
00
ENDCHAR
STARTCHAR uni21D5
ENCODING 8661
SWIDTH 571 0
DWIDTH 8 0
BBX 8 14 0 -2
BITMAP
00
00
10
38
7C
28
28
28
28
7C
38
10
00
00
ENDCHAR
STARTCHAR emptyset
ENCODING 8709
SWIDTH 571 0
DWIDTH 8 0
BBX 8 14 0 -2
BITMAP
00
00
02
04
7C
8A
92
92
A2
7C
40
80
00
00
ENDCHAR
STARTCHAR Delta
ENCODING 8710
SWIDTH 571 0
DWIDTH 8 0
BBX 8 14 0 -2
BITMAP
00
00
10
10
28
28
44
44
82
82
82
FE
00
00
ENDCHAR
STARTCHAR element
ENCODING 8712
SWIDTH 571 0
DWIDTH 8 0
BBX 8 14 0 -2
BITMAP
00
00
00
00
00
1E
20
40
78
40
20
1E
00
00
ENDCHAR
STARTCHAR minus
ENCODING 8722
SWIDTH 571 0
DWIDTH 8 0
BBX 8 14 0 -2
BITMAP
00
00
00
00
00
00
00
7E
00
00
00
00
00
00
ENDCHAR
STARTCHAR bulletoperator
ENCODING 8729
SWIDTH 571 0
DWIDTH 8 0
BBX 8 14 0 -2
BITMAP
00
00
00
00
00
00
18
18
00
00
00
00
00
00
ENDCHAR
STARTCHAR radical
ENCODING 8730
SWIDTH 571 0
DWIDTH 8 0
BBX 8 14 0 -2
BITMAP
00
06
04
04
04
04
44
44
44
24
14
0C
00
00
ENDCHAR
STARTCHAR infinity
ENCODING 8734
SWIDTH 571 0
DWIDTH 8 0
BBX 8 14 0 -2
BITMAP
00
00
00
00
00
6C
92
92
92
6C
00
00
00
00
ENDCHAR
STARTCHAR orthogonal
ENCODING 8735
SWIDTH 571 0
DWIDTH 8 0
BBX 8 14 0 -2
BITMAP
00
00
00
00
40
40
40
40
40
7E
00
00
00
00
ENDCHAR
STARTCHAR logicaland
ENCODING 8743
SWIDTH 571 0
DWIDTH 8 0
BBX 8 14 0 -2
BITMAP
00
00
00
00
00
10
10
28
28
28
44
44
00
00
ENDCHAR
STARTCHAR logicalor
ENCODING 8744
SWIDTH 571 0
DWIDTH 8 0
BBX 8 14 0 -2
BITMAP
00
00
00
00
00
44
44
28
28
28
10
10
00
00
ENDCHAR
STARTCHAR intersection
ENCODING 8745
SWIDTH 571 0
DWIDTH 8 0
BBX 8 14 0 -2
BITMAP
00
00
00
3C
42
42
42
42
42
42
42
42
00
00
ENDCHAR
STARTCHAR union
ENCODING 8746
SWIDTH 571 0
DWIDTH 8 0
BBX 8 14 0 -2
BITMAP
00
00
00
42
42
42
42
42
42
42
42
3C
00
00
ENDCHAR
STARTCHAR approxequal
ENCODING 8776
SWIDTH 571 0
DWIDTH 8 0
BBX 8 14 0 -2
BITMAP
00
00
00
00
00
32
4C
00
32
4C
00
00
00
00
ENDCHAR
STARTCHAR notequal
ENCODING 8800
SWIDTH 571 0
DWIDTH 8 0
BBX 8 14 0 -2
BITMAP
00
00
00
00
02
7E
08
10
7E
40
00
00
00
00
ENDCHAR
STARTCHAR equivalence
ENCODING 8801
SWIDTH 571 0
DWIDTH 8 0
BBX 8 14 0 -2
BITMAP
00
00
00
00
7E
00
00
7E
00
00
7E
00
00
00
ENDCHAR
STARTCHAR lessequal
ENCODING 8804
SWIDTH 571 0
DWIDTH 8 0
BBX 8 14 0 -2
BITMAP
00
00
00
04
08
10
20
10
08
04
00
3E
00
00
ENDCHAR
STARTCHAR greaterequal
ENCODING 8805
SWIDTH 571 0
DWIDTH 8 0
BBX 8 14 0 -2
BITMAP
00
00
00
20
10
08
04
08
10
20
00
7C
00
00
ENDCHAR
STARTCHAR house
ENCODING 8962
SWIDTH 571 0
DWIDTH 8 0
BBX 8 14 0 -2
BITMAP
00
00
00
00
10
28
44
82
82
82
FE
00
00
00
ENDCHAR
STARTCHAR revlogicalnot
ENCODING 8976
SWIDTH 571 0
DWIDTH 8 0
BBX 8 14 0 -2
BITMAP
00
00
00
00
00
7E
40
40
40
00
00
00
00
00
ENDCHAR
STARTCHAR integraltp
ENCODING 8992
SWIDTH 571 0
DWIDTH 8 0
BBX 8 14 0 -2
BITMAP
00
00
0C
12
12
10
10
10
10
10
10
10
10
10
ENDCHAR
STARTCHAR integralbt
ENCODING 8993
SWIDTH 571 0
DWIDTH 8 0
BBX 8 14 0 -2
BITMAP
10
10
10
10
10
10
10
10
10
90
90
60
00
00
ENDCHAR
STARTCHAR uni23BA
ENCODING 9146
SWIDTH 571 0
DWIDTH 8 0
BBX 8 14 0 -2
BITMAP
FF
00
00
00
00
00
00
00
00
00
00
00
00
00
ENDCHAR
STARTCHAR uni23BB
ENCODING 9147
SWIDTH 571 0
DWIDTH 8 0
BBX 8 14 0 -2
BITMAP
00
00
00
FF
00
00
00
00
00
00
00
00
00
00
ENDCHAR
STARTCHAR uni23BC
ENCODING 9148
SWIDTH 571 0
DWIDTH 8 0
BBX 8 14 0 -2
BITMAP
00
00
00
00
00
00
00
00
00
00
FF
00
00
00
ENDCHAR
STARTCHAR uni23BD
ENCODING 9149
SWIDTH 571 0
DWIDTH 8 0
BBX 8 14 0 -2
BITMAP
00
00
00
00
00
00
00
00
00
00
00
00
00
FF
ENDCHAR
STARTCHAR uni2409
ENCODING 9225
SWIDTH 571 0
DWIDTH 8 0
BBX 8 14 0 -2
BITMAP
00
88
88
F8
88
88
00
1F
04
04
04
04
00
00
ENDCHAR
STARTCHAR uni240A
ENCODING 9226
SWIDTH 571 0
DWIDTH 8 0
BBX 8 14 0 -2
BITMAP
00
80
80
80
80
F8
00
1F
10
1C
10
10
00
00
ENDCHAR
STARTCHAR uni240B
ENCODING 9227
SWIDTH 571 0
DWIDTH 8 0
BBX 8 14 0 -2
BITMAP
00
88
88
50
50
20
00
1F
04
04
04
04
00
00
ENDCHAR
STARTCHAR uni240C
ENCODING 9228
SWIDTH 571 0
DWIDTH 8 0
BBX 8 14 0 -2
BITMAP
00
F8
80
E0
80
80
00
1F
10
1C
10
10
00
00
ENDCHAR
STARTCHAR uni240D
ENCODING 9229
SWIDTH 571 0
DWIDTH 8 0
BBX 8 14 0 -2
BITMAP
00
70
88
80
88
70
00
1E
11
1E
12
11
00
00
ENDCHAR
STARTCHAR uni2424
ENCODING 9252
SWIDTH 571 0
DWIDTH 8 0
BBX 8 14 0 -2
BITMAP
00
88
C8
A8
98
88
00
10
10
10
10
1F
00
00
ENDCHAR
STARTCHAR SF100000
ENCODING 9472
SWIDTH 571 0
DWIDTH 8 0
BBX 8 14 0 -2
BITMAP
00
00
00
00
00
00
FF
00
00
00
00
00
00
00
ENDCHAR
STARTCHAR SF110000
ENCODING 9474
SWIDTH 571 0
DWIDTH 8 0
BBX 8 14 0 -2
BITMAP
10
10
10
10
10
10
10
10
10
10
10
10
10
10
ENDCHAR
STARTCHAR SF010000
ENCODING 9484
SWIDTH 571 0
DWIDTH 8 0
BBX 8 14 0 -2
BITMAP
00
00
00
00
00
00
1F
10
10
10
10
10
10
10
ENDCHAR
STARTCHAR SF030000
ENCODING 9488
SWIDTH 571 0
DWIDTH 8 0
BBX 8 14 0 -2
BITMAP
00
00
00
00
00
00
F0
10
10
10
10
10
10
10
ENDCHAR
STARTCHAR SF020000
ENCODING 9492
SWIDTH 571 0
DWIDTH 8 0
BBX 8 14 0 -2
BITMAP
10
10
10
10
10
10
1F
00
00
00
00
00
00
00
ENDCHAR
STARTCHAR SF040000
ENCODING 9496
SWIDTH 571 0
DWIDTH 8 0
BBX 8 14 0 -2
BITMAP
10
10
10
10
10
10
F0
00
00
00
00
00
00
00
ENDCHAR
STARTCHAR SF080000
ENCODING 9500
SWIDTH 571 0
DWIDTH 8 0
BBX 8 14 0 -2
BITMAP
10
10
10
10
10
10
1F
10
10
10
10
10
10
10
ENDCHAR
STARTCHAR SF090000
ENCODING 9508
SWIDTH 571 0
DWIDTH 8 0
BBX 8 14 0 -2
BITMAP
10
10
10
10
10
10
F0
10
10
10
10
10
10
10
ENDCHAR
STARTCHAR SF060000
ENCODING 9516
SWIDTH 571 0
DWIDTH 8 0
BBX 8 14 0 -2
BITMAP
00
00
00
00
00
00
FF
10
10
10
10
10
10
10
ENDCHAR
STARTCHAR SF070000
ENCODING 9524
SWIDTH 571 0
DWIDTH 8 0
BBX 8 14 0 -2
BITMAP
10
10
10
10
10
10
FF
00
00
00
00
00
00
00
ENDCHAR
STARTCHAR SF050000
ENCODING 9532
SWIDTH 571 0
DWIDTH 8 0
BBX 8 14 0 -2
BITMAP
10
10
10
10
10
10
FF
10
10
10
10
10
10
10
ENDCHAR
STARTCHAR SF430000
ENCODING 9552
SWIDTH 571 0
DWIDTH 8 0
BBX 8 14 0 -2
BITMAP
00
00
00
00
00
FF
00
FF
00
00
00
00
00
00
ENDCHAR
STARTCHAR SF240000
ENCODING 9553
SWIDTH 571 0
DWIDTH 8 0
BBX 8 14 0 -2
BITMAP
28
28
28
28
28
28
28
28
28
28
28
28
28
28
ENDCHAR
STARTCHAR SF510000
ENCODING 9554
SWIDTH 571 0
DWIDTH 8 0
BBX 8 14 0 -2
BITMAP
00
00
00
00
00
1F
10
1F
10
10
10
10
10
10
ENDCHAR
STARTCHAR SF520000
ENCODING 9555
SWIDTH 571 0
DWIDTH 8 0
BBX 8 14 0 -2
BITMAP
00
00
00
00
00
00
3F
28
28
28
28
28
28
28
ENDCHAR
STARTCHAR SF390000
ENCODING 9556
SWIDTH 571 0
DWIDTH 8 0
BBX 8 14 0 -2
BITMAP
00
00
00
00
00
3F
20
2F
28
28
28
28
28
28
ENDCHAR
STARTCHAR SF220000
ENCODING 9557
SWIDTH 571 0
DWIDTH 8 0
BBX 8 14 0 -2
BITMAP
00
00
00
00
00
F0
10
F0
10
10
10
10
10
10
ENDCHAR
STARTCHAR SF210000
ENCODING 9558
SWIDTH 571 0
DWIDTH 8 0
BBX 8 14 0 -2
BITMAP
00
00
00
00
00
00
F8
28
28
28
28
28
28
28
ENDCHAR
STARTCHAR SF250000
ENCODING 9559
SWIDTH 571 0
DWIDTH 8 0
BBX 8 14 0 -2
BITMAP
00
00
00
00
00
F8
08
E8
28
28
28
28
28
28
ENDCHAR
STARTCHAR SF500000
ENCODING 9560
SWIDTH 571 0
DWIDTH 8 0
BBX 8 14 0 -2
BITMAP
10
10
10
10
10
1F
10
1F
00
00
00
00
00
00
ENDCHAR
STARTCHAR SF490000
ENCODING 9561
SWIDTH 571 0
DWIDTH 8 0
BBX 8 14 0 -2
BITMAP
28
28
28
28
28
28
3F
00
00
00
00
00
00
00
ENDCHAR
STARTCHAR SF380000
ENCODING 9562
SWIDTH 571 0
DWIDTH 8 0
BBX 8 14 0 -2
BITMAP
28
28
28
28
28
2F
20
3F
00
00
00
00
00
00
ENDCHAR
STARTCHAR SF280000
ENCODING 9563
SWIDTH 571 0
DWIDTH 8 0
BBX 8 14 0 -2
BITMAP
10
10
10
10
10
F0
10
F0
00
00
00
00
00
00
ENDCHAR
STARTCHAR SF270000
ENCODING 9564
SWIDTH 571 0
DWIDTH 8 0
BBX 8 14 0 -2
BITMAP
28
28
28
28
28
28
F8
00
00
00
00
00
00
00
ENDCHAR
STARTCHAR SF260000
ENCODING 9565
SWIDTH 571 0
DWIDTH 8 0
BBX 8 14 0 -2
BITMAP
28
28
28
28
28
E8
08
F8
00
00
00
00
00
00
ENDCHAR
STARTCHAR SF360000
ENCODING 9566
SWIDTH 571 0
DWIDTH 8 0
BBX 8 14 0 -2
BITMAP
10
10
10
10
10
1F
10
1F
10
10
10
10
10
10
ENDCHAR
STARTCHAR SF370000
ENCODING 9567
SWIDTH 571 0
DWIDTH 8 0
BBX 8 14 0 -2
BITMAP
28
28
28
28
28
28
2F
28
28
28
28
28
28
28
ENDCHAR
STARTCHAR SF420000
ENCODING 9568
SWIDTH 571 0
DWIDTH 8 0
BBX 8 14 0 -2
BITMAP
28
28
28
28
28
2F
20
2F
28
28
28
28
28
28
ENDCHAR
STARTCHAR SF190000
ENCODING 9569
SWIDTH 571 0
DWIDTH 8 0
BBX 8 14 0 -2
BITMAP
10
10
10
10
10
F0
10
F0
10
10
10
10
10
10
ENDCHAR
STARTCHAR SF200000
ENCODING 9570
SWIDTH 571 0
DWIDTH 8 0
BBX 8 14 0 -2
BITMAP
28
28
28
28
28
28
E8
28
28
28
28
28
28
28
ENDCHAR
STARTCHAR SF230000
ENCODING 9571
SWIDTH 571 0
DWIDTH 8 0
BBX 8 14 0 -2
BITMAP
28
28
28
28
28
E8
08
E8
28
28
28
28
28
28
ENDCHAR
STARTCHAR SF470000
ENCODING 9572
SWIDTH 571 0
DWIDTH 8 0
BBX 8 14 0 -2
BITMAP
00
00
00
00
00
FF
00
FF
10
10
10
10
10
10
ENDCHAR
STARTCHAR SF480000
ENCODING 9573
SWIDTH 571 0
DWIDTH 8 0
BBX 8 14 0 -2
BITMAP
00
00
00
00
00
00
FF
28
28
28
28
28
28
28
ENDCHAR
STARTCHAR SF410000
ENCODING 9574
SWIDTH 571 0
DWIDTH 8 0
BBX 8 14 0 -2
BITMAP
00
00
00
00
00
FF
00
EF
28
28
28
28
28
28
ENDCHAR
STARTCHAR SF450000
ENCODING 9575
SWIDTH 571 0
DWIDTH 8 0
BBX 8 14 0 -2
BITMAP
10
10
10
10
10
FF
00
FF
00
00
00
00
00
00
ENDCHAR
STARTCHAR SF460000
ENCODING 9576
SWIDTH 571 0
DWIDTH 8 0
BBX 8 14 0 -2
BITMAP
28
28
28
28
28
28
FF
00
00
00
00
00
00
00
ENDCHAR
STARTCHAR SF400000
ENCODING 9577
SWIDTH 571 0
DWIDTH 8 0
BBX 8 14 0 -2
BITMAP
28
28
28
28
28
EF
00
FF
00
00
00
00
00
00
ENDCHAR
STARTCHAR SF540000
ENCODING 9578
SWIDTH 571 0
DWIDTH 8 0
BBX 8 14 0 -2
BITMAP
10
10
10
10
10
FF
10
FF
10
10
10
10
10
10
ENDCHAR
STARTCHAR SF530000
ENCODING 9579
SWIDTH 571 0
DWIDTH 8 0
BBX 8 14 0 -2
BITMAP
28
28
28
28
28
28
FF
28
28
28
28
28
28
28
ENDCHAR
STARTCHAR SF440000
ENCODING 9580
SWIDTH 571 0
DWIDTH 8 0
BBX 8 14 0 -2
BITMAP
28
28
28
28
28
EF
00
EF
28
28
28
28
28
28
ENDCHAR
STARTCHAR upblock
ENCODING 9600
SWIDTH 571 0
DWIDTH 8 0
BBX 8 14 0 -2
BITMAP
FF
FF
FF
FF
FF
FF
FF
00
00
00
00
00
00
00
ENDCHAR
STARTCHAR dnblock
ENCODING 9604
SWIDTH 571 0
DWIDTH 8 0
BBX 8 14 0 -2
BITMAP
00
00
00
00
00
00
00
FF
FF
FF
FF
FF
FF
FF
ENDCHAR
STARTCHAR block
ENCODING 9608
SWIDTH 571 0
DWIDTH 8 0
BBX 8 14 0 -2
BITMAP
FF
FF
FF
FF
FF
FF
FF
FF
FF
FF
FF
FF
FF
FF
ENDCHAR
STARTCHAR lfblock
ENCODING 9612
SWIDTH 571 0
DWIDTH 8 0
BBX 8 14 0 -2
BITMAP
F0
F0
F0
F0
F0
F0
F0
F0
F0
F0
F0
F0
F0
F0
ENDCHAR
STARTCHAR rtblock
ENCODING 9616
SWIDTH 571 0
DWIDTH 8 0
BBX 8 14 0 -2
BITMAP
0F
0F
0F
0F
0F
0F
0F
0F
0F
0F
0F
0F
0F
0F
ENDCHAR
STARTCHAR ltshade
ENCODING 9617
SWIDTH 571 0
DWIDTH 8 0
BBX 8 14 0 -2
BITMAP
88
22
88
22
88
22
88
22
88
22
88
22
88
22
ENDCHAR
STARTCHAR shade
ENCODING 9618
SWIDTH 571 0
DWIDTH 8 0
BBX 8 14 0 -2
BITMAP
AA
55
AA
55
AA
55
AA
55
AA
55
AA
55
AA
55
ENDCHAR
STARTCHAR dkshade
ENCODING 9619
SWIDTH 571 0
DWIDTH 8 0
BBX 8 14 0 -2
BITMAP
EE
BB
EE
BB
EE
BB
EE
BB
EE
BB
EE
BB
EE
BB
ENDCHAR
STARTCHAR filledbox
ENCODING 9632
SWIDTH 571 0
DWIDTH 8 0
BBX 8 14 0 -2
BITMAP
00
00
00
00
3C
3C
3C
3C
3C
3C
00
00
00
00
ENDCHAR
STARTCHAR filledrect
ENCODING 9644
SWIDTH 571 0
DWIDTH 8 0
BBX 8 14 0 -2
BITMAP
00
00
00
00
00
00
00
00
7E
7E
7E
7E
00
00
ENDCHAR
STARTCHAR uni25AE
ENCODING 9646
SWIDTH 571 0
DWIDTH 8 0
BBX 8 14 0 -2
BITMAP
00
00
7E
7E
7E
7E
7E
7E
7E
7E
7E
7E
00
00
ENDCHAR
STARTCHAR triagup
ENCODING 9650
SWIDTH 571 0
DWIDTH 8 0
BBX 8 14 0 -2
BITMAP
00
00
00
10
10
38
38
7C
7C
FE
FE
00
00
00
ENDCHAR
STARTCHAR uni25B6
ENCODING 9654
SWIDTH 571 0
DWIDTH 8 0
BBX 8 14 0 -2
BITMAP
00
40
60
70
78
7C
7E
7C
78
70
60
40
00
00
ENDCHAR
STARTCHAR triagdn
ENCODING 9660
SWIDTH 571 0
DWIDTH 8 0
BBX 8 14 0 -2
BITMAP
00
00
00
FE
FE
7C
7C
38
38
10
10
00
00
00
ENDCHAR
STARTCHAR uni25C0
ENCODING 9664
SWIDTH 571 0
DWIDTH 8 0
BBX 8 14 0 -2
BITMAP
00
02
06
0E
1E
3E
7E
3E
1E
0E
06
02
00
00
ENDCHAR
STARTCHAR blackdiamond
ENCODING 9670
SWIDTH 571 0
DWIDTH 8 0
BBX 8 14 0 -2
BITMAP
00
00
00
00
10
38
7C
FE
7C
38
10
00
00
00
ENDCHAR
STARTCHAR lozenge
ENCODING 9674
SWIDTH 571 0
DWIDTH 8 0
BBX 8 14 0 -2
BITMAP
00
00
00
00
10
28
44
82
44
28
10
00
00
00
ENDCHAR
STARTCHAR circle
ENCODING 9675
SWIDTH 571 0
DWIDTH 8 0
BBX 8 14 0 -2
BITMAP
00
00
00
00
00
18
24
24
18
00
00
00
00
00
ENDCHAR
STARTCHAR invbullet
ENCODING 9688
SWIDTH 571 0
DWIDTH 8 0
BBX 8 14 0 -2
BITMAP
FF
FF
FF
FF
FF
E7
C3
C3
E7
FF
FF
FF
FF
FF
ENDCHAR
STARTCHAR invcircle
ENCODING 9689
SWIDTH 571 0
DWIDTH 8 0
BBX 8 14 0 -2
BITMAP
FF
FF
FF
FF
FF
E7
DB
DB
E7
FF
FF
FF
FF
FF
ENDCHAR
STARTCHAR smileface
ENCODING 9786
SWIDTH 571 0
DWIDTH 8 0
BBX 8 14 0 -2
BITMAP
00
00
7C
82
AA
82
82
BA
92
82
82
7C
00
00
ENDCHAR
STARTCHAR invsmileface
ENCODING 9787
SWIDTH 571 0
DWIDTH 8 0
BBX 8 14 0 -2
BITMAP
00
00
7C
FE
D6
FE
FE
C6
EE
FE
FE
7C
00
00
ENDCHAR
STARTCHAR sun
ENCODING 9788
SWIDTH 571 0
DWIDTH 8 0
BBX 8 14 0 -2
BITMAP
00
00
00
10
10
D6
38
EE
38
D6
10
10
00
00
ENDCHAR
STARTCHAR female
ENCODING 9792
SWIDTH 571 0
DWIDTH 8 0
BBX 8 14 0 -2
BITMAP
00
00
38
44
44
44
44
38
10
7C
10
10
00
00
ENDCHAR
STARTCHAR male
ENCODING 9794
SWIDTH 571 0
DWIDTH 8 0
BBX 8 14 0 -2
BITMAP
00
00
1E
06
0A
12
38
44
44
44
44
38
00
00
ENDCHAR
STARTCHAR spade
ENCODING 9824
SWIDTH 571 0
DWIDTH 8 0
BBX 8 14 0 -2
BITMAP
00
00
10
10
38
7C
FE
FE
7C
10
10
38
00
00
ENDCHAR
STARTCHAR club
ENCODING 9827
SWIDTH 571 0
DWIDTH 8 0
BBX 8 14 0 -2
BITMAP
00
00
10
38
38
10
54
FE
FE
54
10
38
00
00
ENDCHAR
STARTCHAR heart
ENCODING 9829
SWIDTH 571 0
DWIDTH 8 0
BBX 8 14 0 -2
BITMAP
00
00
00
6C
FE
FE
FE
FE
7C
38
10
00
00
00
ENDCHAR
STARTCHAR diamond
ENCODING 9830
SWIDTH 571 0
DWIDTH 8 0
BBX 8 14 0 -2
BITMAP
00
00
00
00
10
38
7C
FE
7C
38
10
00
00
00
ENDCHAR
STARTCHAR musicalnote
ENCODING 9834
SWIDTH 571 0
DWIDTH 8 0
BBX 8 14 0 -2
BITMAP
00
00
3E
22
3E
20
20
20
20
20
20
C0
00
00
ENDCHAR
STARTCHAR musicalnotedbl
ENCODING 9835
SWIDTH 571 0
DWIDTH 8 0
BBX 8 14 0 -2
BITMAP
00
00
7E
42
7E
42
42
42
42
42
42
44
80
00
ENDCHAR
STARTCHAR dotlessj
ENCODING 63166
SWIDTH 571 0
DWIDTH 8 0
BBX 8 14 0 -2
BITMAP
00
00
00
00
00
0C
04
04
04
04
04
44
44
38
ENDCHAR
STARTCHAR uniFFFD
ENCODING 65533
SWIDTH 571 0
DWIDTH 8 0
BBX 8 14 0 -2
BITMAP
00
00
7E
42
42
42
42
42
42
42
42
7E
00
00
ENDCHAR
ENDFONT
